<svg xmlns="http://www.w3.org/2000/svg" xmlns:xlink="http://www.w3.org/1999/xlink" width="500" zoomAndPan="magnify" viewBox="0 0 375 374.999991" height="500" preserveAspectRatio="xMidYMid meet" version="1.0"><defs><g/><clipPath id="fa35a04f0d"><path d="M 98 88 L 272 88 L 272 269 L 98 269 Z M 98 88 " clip-rule="nonzero"/></clipPath><clipPath id="e93319d1b4"><path d="M 121.199219 70.179688 L 321.890625 117.742188 L 280.382812 292.890625 L 79.691406 245.328125 Z M 121.199219 70.179688 " clip-rule="nonzero"/></clipPath><clipPath id="31d7865e12"><path d="M 322.175781 117.808594 L 121.484375 70.246094 L 79.976562 245.394531 L 280.667969 292.957031 Z M 322.175781 117.808594 " clip-rule="nonzero"/></clipPath><clipPath id="dd2807887f"><path d="M 279.71875 107.851562 L 121.460938 70.347656 L 80 245.292969 L 238.257812 282.800781 Z M 279.71875 107.851562 " clip-rule="nonzero"/></clipPath><clipPath id="1b20f5f181"><path d="M 279.71875 107.851562 L 121.46875 70.347656 L 80.007812 245.289062 L 238.257812 282.792969 Z M 279.71875 107.851562 " clip-rule="nonzero"/></clipPath><clipPath id="be6a83e6b5"><path d="M 229 183 L 279 183 L 279 259 L 229 259 Z M 229 183 " clip-rule="nonzero"/></clipPath><clipPath id="b5858bf00c"><path d="M 121.199219 70.179688 L 321.890625 117.742188 L 280.382812 292.890625 L 79.691406 245.328125 Z M 121.199219 70.179688 " clip-rule="nonzero"/></clipPath><clipPath id="87fe4a87b3"><path d="M 322.175781 117.808594 L 121.484375 70.246094 L 79.976562 245.394531 L 280.667969 292.957031 Z M 322.175781 117.808594 " clip-rule="nonzero"/></clipPath><clipPath id="7218f5537d"><path d="M 270 144 L 283 144 L 283 187 L 270 187 Z M 270 144 " clip-rule="nonzero"/></clipPath><clipPath id="bdd1107bda"><path d="M 121.199219 70.179688 L 321.890625 117.742188 L 280.382812 292.890625 L 79.691406 245.328125 Z M 121.199219 70.179688 " clip-rule="nonzero"/></clipPath><clipPath id="9aae75d7f7"><path d="M 322.175781 117.808594 L 121.484375 70.246094 L 79.976562 245.394531 L 280.667969 292.957031 Z M 322.175781 117.808594 " clip-rule="nonzero"/></clipPath><clipPath id="58b68f0ed7"><path d="M 273 169 L 296 169 L 296 207 L 273 207 Z M 273 169 " clip-rule="nonzero"/></clipPath><clipPath id="acd0f50250"><path d="M 121.199219 70.179688 L 321.890625 117.742188 L 280.382812 292.890625 L 79.691406 245.328125 Z M 121.199219 70.179688 " clip-rule="nonzero"/></clipPath><clipPath id="556efd53ea"><path d="M 322.175781 117.808594 L 121.484375 70.246094 L 79.976562 245.394531 L 280.667969 292.957031 Z M 322.175781 117.808594 " clip-rule="nonzero"/></clipPath><clipPath id="27ccbeb3ef"><path d="M 261 165 L 275 165 L 275 215 L 261 215 Z M 261 165 " clip-rule="nonzero"/></clipPath><clipPath id="6e14676abd"><path d="M 121.199219 70.179688 L 321.890625 117.742188 L 280.382812 292.890625 L 79.691406 245.328125 Z M 121.199219 70.179688 " clip-rule="nonzero"/></clipPath><clipPath id="813b5f4a60"><path d="M 322.175781 117.808594 L 121.484375 70.246094 L 79.976562 245.394531 L 280.667969 292.957031 Z M 322.175781 117.808594 " clip-rule="nonzero"/></clipPath><clipPath id="b070db5c2b"><path d="M 263 203 L 302 203 L 302 228 L 263 228 Z M 263 203 " clip-rule="nonzero"/></clipPath><clipPath id="d10db7adf8"><path d="M 121.199219 70.179688 L 321.890625 117.742188 L 280.382812 292.890625 L 79.691406 245.328125 Z M 121.199219 70.179688 " clip-rule="nonzero"/></clipPath><clipPath id="1120cf464f"><path d="M 322.175781 117.808594 L 121.484375 70.246094 L 79.976562 245.394531 L 280.667969 292.957031 Z M 322.175781 117.808594 " clip-rule="nonzero"/></clipPath><clipPath id="7d4a7b3298"><path d="M 251 193 L 264 193 L 264 234 L 251 234 Z M 251 193 " clip-rule="nonzero"/></clipPath><clipPath id="44c701dd13"><path d="M 121.199219 70.179688 L 321.890625 117.742188 L 280.382812 292.890625 L 79.691406 245.328125 Z M 121.199219 70.179688 " clip-rule="nonzero"/></clipPath><clipPath id="f4dac81eba"><path d="M 322.175781 117.808594 L 121.484375 70.246094 L 79.976562 245.394531 L 280.667969 292.957031 Z M 322.175781 117.808594 " clip-rule="nonzero"/></clipPath><clipPath id="662e3ea096"><path d="M 241 243 L 258 243 L 258 250 L 241 250 Z M 241 243 " clip-rule="nonzero"/></clipPath><clipPath id="99bf97139d"><path d="M 121.199219 70.179688 L 321.890625 117.742188 L 280.382812 292.890625 L 79.691406 245.328125 Z M 121.199219 70.179688 " clip-rule="nonzero"/></clipPath><clipPath id="12f5391a19"><path d="M 322.175781 117.808594 L 121.484375 70.246094 L 79.976562 245.394531 L 280.667969 292.957031 Z M 322.175781 117.808594 " clip-rule="nonzero"/></clipPath><clipPath id="cfc44f53b6"><path d="M 255 227 L 292 227 L 292 245 L 255 245 Z M 255 227 " clip-rule="nonzero"/></clipPath><clipPath id="1b15402d8d"><path d="M 121.199219 70.179688 L 321.890625 117.742188 L 280.382812 292.890625 L 79.691406 245.328125 Z M 121.199219 70.179688 " clip-rule="nonzero"/></clipPath><clipPath id="0d04dcf546"><path d="M 322.175781 117.808594 L 121.484375 70.246094 L 79.976562 245.394531 L 280.667969 292.957031 Z M 322.175781 117.808594 " clip-rule="nonzero"/></clipPath><clipPath id="8d60a3aaa3"><path d="M 257 229 L 281 229 L 281 245 L 257 245 Z M 257 229 " clip-rule="nonzero"/></clipPath><clipPath id="0258fe1542"><path d="M 121.199219 70.179688 L 321.890625 117.742188 L 280.382812 292.890625 L 79.691406 245.328125 Z M 121.199219 70.179688 " clip-rule="nonzero"/></clipPath><clipPath id="2a5ad2be1a"><path d="M 322.175781 117.808594 L 121.484375 70.246094 L 79.976562 245.394531 L 280.667969 292.957031 Z M 322.175781 117.808594 " clip-rule="nonzero"/></clipPath><clipPath id="75c5071ce0"><path d="M 264 213 L 290 213 L 290 226 L 264 226 Z M 264 213 " clip-rule="nonzero"/></clipPath><clipPath id="2c554b52e6"><path d="M 121.199219 70.179688 L 321.890625 117.742188 L 280.382812 292.890625 L 79.691406 245.328125 Z M 121.199219 70.179688 " clip-rule="nonzero"/></clipPath><clipPath id="a6e87daf7c"><path d="M 322.175781 117.808594 L 121.484375 70.246094 L 79.976562 245.394531 L 280.667969 292.957031 Z M 322.175781 117.808594 " clip-rule="nonzero"/></clipPath><clipPath id="f4d1aaffd4"><path d="M 275 186 L 292 186 L 292 206 L 275 206 Z M 275 186 " clip-rule="nonzero"/></clipPath><clipPath id="86e94d3c6f"><path d="M 121.199219 70.179688 L 321.890625 117.742188 L 280.382812 292.890625 L 79.691406 245.328125 Z M 121.199219 70.179688 " clip-rule="nonzero"/></clipPath><clipPath id="412496e661"><path d="M 322.175781 117.808594 L 121.484375 70.246094 L 79.976562 245.394531 L 280.667969 292.957031 Z M 322.175781 117.808594 " clip-rule="nonzero"/></clipPath><clipPath id="706acc2ece"><path d="M 275 159 L 279 159 L 279 185 L 275 185 Z M 275 159 " clip-rule="nonzero"/></clipPath><clipPath id="be0b0be997"><path d="M 121.199219 70.179688 L 321.890625 117.742188 L 280.382812 292.890625 L 79.691406 245.328125 Z M 121.199219 70.179688 " clip-rule="nonzero"/></clipPath><clipPath id="cd0a6724a3"><path d="M 322.175781 117.808594 L 121.484375 70.246094 L 79.976562 245.394531 L 280.667969 292.957031 Z M 322.175781 117.808594 " clip-rule="nonzero"/></clipPath><clipPath id="e29540a3f4"><path d="M 265 180 L 273 180 L 273 214 L 265 214 Z M 265 180 " clip-rule="nonzero"/></clipPath><clipPath id="da41254d12"><path d="M 121.199219 70.179688 L 321.890625 117.742188 L 280.382812 292.890625 L 79.691406 245.328125 Z M 121.199219 70.179688 " clip-rule="nonzero"/></clipPath><clipPath id="e20eb67758"><path d="M 322.175781 117.808594 L 121.484375 70.246094 L 79.976562 245.394531 L 280.667969 292.957031 Z M 322.175781 117.808594 " clip-rule="nonzero"/></clipPath><clipPath id="13a9faaf30"><path d="M 257 199 L 261 199 L 261 231 L 257 231 Z M 257 199 " clip-rule="nonzero"/></clipPath><clipPath id="e2bc39fabb"><path d="M 121.199219 70.179688 L 321.890625 117.742188 L 280.382812 292.890625 L 79.691406 245.328125 Z M 121.199219 70.179688 " clip-rule="nonzero"/></clipPath><clipPath id="c3cd10cfb8"><path d="M 322.175781 117.808594 L 121.484375 70.246094 L 79.976562 245.394531 L 280.667969 292.957031 Z M 322.175781 117.808594 " clip-rule="nonzero"/></clipPath><clipPath id="579a6c0f91"><path d="M 246 236 L 251 236 L 251 245 L 246 245 Z M 246 236 " clip-rule="nonzero"/></clipPath><clipPath id="4ffdf4049c"><path d="M 121.199219 70.179688 L 321.890625 117.742188 L 280.382812 292.890625 L 79.691406 245.328125 Z M 121.199219 70.179688 " clip-rule="nonzero"/></clipPath><clipPath id="ae4c0d5469"><path d="M 322.175781 117.808594 L 121.484375 70.246094 L 79.976562 245.394531 L 280.667969 292.957031 Z M 322.175781 117.808594 " clip-rule="nonzero"/></clipPath><clipPath id="f3fafdaffd"><path d="M 101 122 L 271 122 L 271 194 L 101 194 Z M 101 122 " clip-rule="nonzero"/></clipPath><clipPath id="dc203328d3"><path d="M 116.875 100.835938 L 274.648438 134.152344 L 256.054688 222.210938 L 98.28125 188.894531 Z M 116.875 100.835938 " clip-rule="nonzero"/></clipPath><clipPath id="aca4406654"><path d="M 116.875 100.835938 L 274.648438 134.152344 L 256.054688 222.210938 L 98.28125 188.894531 Z M 116.875 100.835938 " clip-rule="nonzero"/></clipPath></defs><g clip-path="url(#fa35a04f0d)"><g clip-path="url(#e93319d1b4)"><g clip-path="url(#31d7865e12)"><g clip-path="url(#dd2807887f)"><g clip-path="url(#1b20f5f181)"><path fill="#ffffff" d="M 167.558594 266.035156 C 167.726562 266.074219 167.890625 266.113281 168.054688 266.152344 C 174.585938 267.660156 181.300781 268.429688 188.015625 268.441406 C 201.136719 268.457031 214.375 265.523438 226.300781 259.949219 C 226.527344 259.84375 226.625 259.574219 226.519531 259.347656 C 226.414062 259.121094 226.144531 259.023438 225.917969 259.128906 C 201.316406 270.625 173.253906 270.347656 148.921875 258.371094 C 127.601562 247.878906 111.640625 229.710938 103.988281 207.210938 C 96.332031 184.714844 97.894531 160.585938 108.390625 139.261719 C 118.882812 117.941406 137.050781 101.984375 159.546875 94.328125 C 182.042969 86.671875 206.171875 88.234375 227.492188 98.726562 C 246.746094 108.203125 261.921875 124.308594 270.21875 144.070312 C 270.316406 144.300781 270.578125 144.410156 270.8125 144.3125 C 271.039062 144.214844 271.148438 143.949219 271.050781 143.722656 C 266.945312 133.9375 261.214844 125.058594 254.023438 117.324219 C 246.582031 109.316406 237.789062 102.785156 227.890625 97.917969 C 217.007812 92.558594 205.398438 89.492188 193.386719 88.804688 C 181.789062 88.140625 170.304688 89.710938 159.253906 93.46875 C 148.207031 97.230469 138.148438 102.992188 129.363281 110.59375 C 120.265625 118.46875 112.933594 127.976562 107.578125 138.863281 C 102.21875 149.75 99.15625 161.359375 98.464844 173.371094 C 97.800781 184.96875 99.371094 196.453125 103.132812 207.503906 C 106.890625 218.554688 112.652344 228.613281 120.253906 237.398438 C 128.125 246.496094 137.636719 253.824219 148.519531 259.183594 C 154.609375 262.179688 161.011719 264.484375 167.558594 266.035156 " fill-opacity="1" fill-rule="nonzero"/></g></g></g></g></g><g clip-path="url(#be6a83e6b5)"><g clip-path="url(#b5858bf00c)"><g clip-path="url(#87fe4a87b3)"><path fill="#ffffff" d="M 229.4375 257.429688 C 239.300781 251.148438 248.421875 243.632812 256.179688 234.871094 C 263.917969 226.136719 270.324219 216.058594 274.046875 204.953125 C 276.261719 198.351562 277.46875 191.507812 277.542969 184.542969 C 277.550781 183.714844 278.839844 183.664062 278.835938 184.496094 C 278.703125 196.75 275.050781 208.628906 269.023438 219.25 C 263.128906 229.636719 255.148438 238.773438 246.152344 246.585938 C 241.117188 250.964844 235.742188 254.945312 230.113281 258.53125 C 229.414062 258.976562 228.734375 257.875 229.4375 257.429688 " fill-opacity="1" fill-rule="nonzero"/></g></g></g><g clip-path="url(#7218f5537d)"><g clip-path="url(#bdd1107bda)"><g clip-path="url(#9aae75d7f7)"><path fill="#ffffff" d="M 277.863281 185.328125 C 275.1875 180.875 272.292969 176.175781 271.199219 171.03125 C 270.066406 165.695312 271.101562 160.25 271.59375 154.90625 C 271.875 151.816406 271.988281 148.679688 271.390625 145.621094 C 271.273438 145.019531 272.15625 144.722656 272.316406 145.335938 C 273.796875 151.003906 277.25 155.800781 279.859375 160.964844 C 281.09375 163.40625 281.953125 165.9375 282.214844 168.671875 C 282.476562 171.382812 282.179688 174.128906 281.578125 176.773438 C 280.871094 179.882812 279.734375 182.878906 278.488281 185.808594 C 278.242188 186.378906 277.394531 185.914062 277.636719 185.34375 C 279.757812 180.367188 281.617188 175.011719 281.308594 169.523438 C 281.148438 166.671875 280.320312 164.015625 279.035156 161.472656 C 277.796875 159.019531 276.371094 156.660156 275.050781 154.25 C 273.546875 151.5 272.183594 148.660156 271.390625 145.621094 C 271.699219 145.527344 272.007812 145.429688 272.316406 145.335938 C 273.359375 150.679688 272.363281 156.046875 271.878906 161.390625 C 271.640625 164.050781 271.527344 166.742188 271.890625 169.394531 C 272.253906 172.035156 273.210938 174.558594 274.34375 176.957031 C 275.621094 179.667969 277.144531 182.253906 278.6875 184.820312 C 279.007812 185.355469 278.183594 185.863281 277.863281 185.328125 " fill-opacity="1" fill-rule="nonzero"/></g></g></g><g clip-path="url(#58b68f0ed7)"><g clip-path="url(#acd0f50250)"><g clip-path="url(#556efd53ea)"><path fill="#ffffff" d="M 274.222656 204.515625 C 275.882812 199.492188 278.679688 195.09375 282.332031 191.289062 C 284.207031 189.339844 286.148438 187.457031 287.816406 185.320312 C 289.472656 183.191406 290.894531 180.878906 292.070312 178.449219 C 293.382812 175.738281 294.363281 172.886719 295.011719 169.945312 C 295.128906 169.421875 295.980469 169.484375 295.96875 170.039062 C 295.902344 173.636719 295.859375 177.238281 295.65625 180.832031 C 295.46875 184.199219 295.066406 187.621094 293.667969 190.722656 C 291.40625 195.742188 286.75 198.664062 282.195312 201.359375 C 279.535156 202.933594 276.871094 204.527344 274.570312 206.609375 C 274.109375 207.027344 273.402344 206.359375 273.867188 205.941406 C 277.742188 202.433594 282.578125 200.363281 286.773438 197.308594 C 288.867188 195.785156 290.753906 193.953125 292.070312 191.707031 C 293.816406 188.722656 294.386719 185.242188 294.628906 181.835938 C 294.90625 177.925781 294.929688 173.996094 295 170.078125 C 295.316406 170.105469 295.636719 170.136719 295.953125 170.171875 C 294.828125 175.265625 292.699219 180.132812 289.695312 184.398438 C 288.167969 186.5625 286.410156 188.511719 284.554688 190.402344 C 282.613281 192.382812 280.703125 194.371094 279.136719 196.671875 C 277.445312 199.160156 276.109375 201.878906 275.167969 204.738281 C 274.972656 205.324219 274.027344 205.109375 274.222656 204.515625 " fill-opacity="1" fill-rule="nonzero"/></g></g></g><g clip-path="url(#27ccbeb3ef)"><g clip-path="url(#6e14676abd)"><g clip-path="url(#813b5f4a60)"><path fill="#ffffff" d="M 270.296875 213.980469 C 271.554688 210.601562 270.6875 206.953125 269.359375 203.734375 C 268.074219 200.621094 266.164062 197.886719 264.515625 194.96875 C 262.964844 192.21875 261.957031 189.324219 261.90625 186.144531 C 261.855469 182.90625 262.527344 179.703125 263.089844 176.53125 C 263.71875 172.992188 264.328125 169.285156 263.4375 165.738281 C 263.3125 165.234375 264.054688 164.824219 264.316406 165.34375 C 265.855469 168.386719 267.414062 171.488281 268.117188 174.851562 C 268.820312 178.21875 268.441406 181.691406 269.472656 185.003906 C 271.132812 190.3125 275.003906 195.128906 274.65625 200.9375 C 274.414062 204.960938 272.003906 208.59375 272.199219 212.667969 C 272.230469 213.289062 271.261719 213.324219 271.230469 212.703125 C 271.0625 209.160156 272.804688 205.96875 273.472656 202.570312 C 274.050781 199.640625 273.410156 196.796875 272.3125 194.074219 C 271.253906 191.457031 269.871094 188.984375 268.902344 186.332031 C 268.410156 184.976562 268.042969 183.582031 267.859375 182.152344 C 267.628906 180.375 267.65625 178.574219 267.457031 176.792969 C 267.011719 172.882812 265.246094 169.316406 263.492188 165.851562 C 263.78125 165.71875 264.074219 165.585938 264.367188 165.457031 C 265.972656 171.871094 263.191406 178.324219 262.894531 184.730469 C 262.820312 186.402344 262.910156 188.089844 263.328125 189.71875 C 263.746094 191.324219 264.4375 192.835938 265.242188 194.28125 C 266.839844 197.148438 268.707031 199.832031 270.03125 202.851562 C 271.570312 206.359375 272.628906 210.476562 271.242188 214.203125 C 271.027344 214.78125 270.082031 214.5625 270.296875 213.980469 " fill-opacity="1" fill-rule="nonzero"/></g></g></g><g clip-path="url(#b070db5c2b)"><g clip-path="url(#d10db7adf8)"><g clip-path="url(#1120cf464f)"><path fill="#ffffff" d="M 263.28125 226.707031 C 265.75 224.867188 268.453125 223.367188 271.320312 222.25 C 274.0625 221.183594 276.902344 220.570312 279.800781 220.117188 C 282.558594 219.683594 285.355469 219.328125 288.003906 218.40625 C 290.902344 217.398438 293.210938 215.605469 294.980469 213.105469 C 296.019531 211.640625 296.894531 210.070312 297.789062 208.519531 C 298.796875 206.777344 299.800781 205.039062 300.808594 203.296875 C 301.035156 203.511719 301.261719 203.726562 301.488281 203.941406 C 296.804688 207.707031 291.902344 211.609375 286.007812 213.234375 C 282.957031 214.078125 279.730469 214.089844 276.714844 215.074219 C 274.023438 215.949219 271.722656 217.691406 269.75 219.683594 C 267.492188 221.96875 265.617188 224.605469 263.960938 227.351562 C 263.640625 227.882812 262.785156 227.421875 263.113281 226.886719 C 265.953125 222.183594 269.613281 217.222656 274.722656 214.828125 C 277.59375 213.480469 280.746094 213.324219 283.816406 212.746094 C 286.929688 212.15625 289.824219 210.914062 292.53125 209.289062 C 295.523438 207.488281 298.261719 205.300781 300.980469 203.117188 C 301.367188 202.804688 301.886719 203.367188 301.65625 203.761719 C 299.90625 206.792969 298.257812 209.925781 296.324219 212.847656 C 294.699219 215.3125 292.691406 217.382812 289.988281 218.640625 C 287.46875 219.816406 284.71875 220.320312 281.988281 220.75 C 279.035156 221.21875 276.085938 221.648438 273.234375 222.589844 C 269.839844 223.714844 266.65625 225.394531 263.789062 227.53125 C 263.289062 227.902344 262.785156 227.078125 263.28125 226.707031 " fill-opacity="1" fill-rule="nonzero"/></g></g></g><g clip-path="url(#7d4a7b3298)"><g clip-path="url(#44c701dd13)"><g clip-path="url(#f4dac81eba)"><path fill="#ffffff" d="M 257.609375 233.117188 C 258.886719 230.617188 259.417969 227.78125 259.082031 224.988281 C 258.75 222.25 257.445312 219.769531 256.726562 217.128906 C 255.375 212.167969 256.355469 206.9375 255.222656 201.949219 C 254.53125 198.90625 252.839844 196.355469 251.074219 193.835938 C 250.835938 193.5 251.203125 192.992188 251.597656 193.109375 C 254.21875 193.875 256.785156 194.996094 258.863281 196.796875 C 261 198.648438 262.320312 201.152344 262.839844 203.914062 C 263.402344 206.882812 263.160156 209.898438 262.730469 212.863281 C 262.484375 214.570312 262.179688 216.273438 261.941406 217.980469 C 261.707031 219.679688 261.585938 221.386719 261.484375 223.101562 C 261.265625 226.695312 260.988281 230.414062 259.066406 233.566406 C 258.742188 234.097656 257.890625 233.632812 258.214844 233.101562 C 259.875 230.382812 260.25 227.214844 260.453125 224.101562 C 260.664062 220.957031 260.960938 217.875 261.460938 214.761719 C 262.328125 209.355469 263.230469 202.808594 259.136719 198.40625 C 257.074219 196.191406 254.238281 194.890625 251.375 194.054688 C 251.550781 193.8125 251.722656 193.570312 251.898438 193.328125 C 253.503906 195.613281 255.09375 197.957031 255.890625 200.664062 C 256.632812 203.191406 256.738281 205.847656 256.8125 208.46875 C 256.886719 211.125 256.90625 213.820312 257.542969 216.417969 C 258.210938 219.125 259.53125 221.632812 259.972656 224.402344 C 260.46875 227.535156 259.894531 230.765625 258.460938 233.582031 C 258.175781 234.136719 257.328125 233.671875 257.609375 233.117188 " fill-opacity="1" fill-rule="nonzero"/></g></g></g><g clip-path="url(#662e3ea096)"><g clip-path="url(#99bf97139d)"><g clip-path="url(#12f5391a19)"><path fill="#ffffff" d="M 241.585938 248.988281 C 246.285156 246.171875 251.480469 244.308594 256.894531 243.480469 C 257.507812 243.386719 257.539062 244.359375 256.929688 244.449219 C 251.6875 245.25 246.640625 247.089844 242.097656 249.8125 C 241.5625 250.132812 241.050781 249.308594 241.585938 248.988281 " fill-opacity="1" fill-rule="nonzero"/></g></g></g><g clip-path="url(#cfc44f53b6)"><g clip-path="url(#1b15402d8d)"><g clip-path="url(#0d04dcf546)"><path fill="#ffffff" d="M 256.433594 243.632812 C 259.03125 243.355469 261.65625 243.296875 264.222656 242.804688 C 266.691406 242.332031 269.109375 241.539062 271.300781 240.300781 C 273.515625 239.050781 275.304688 237.386719 276.992188 235.507812 C 278.757812 233.542969 280.71875 231.765625 283.125 230.617188 C 285.636719 229.417969 288.542969 228.941406 291.136719 230.171875 C 290.945312 230.429688 290.753906 230.691406 290.566406 230.949219 C 286.578125 227.238281 280.355469 227.472656 275.847656 230.054688 C 273.621094 231.332031 271.71875 233.09375 270.046875 235.03125 C 269.132812 236.09375 268.3125 237.234375 267.367188 238.273438 C 266.480469 239.25 265.457031 240.097656 264.351562 240.820312 C 261.8125 242.46875 258.914062 243.480469 256.074219 244.472656 C 255.484375 244.679688 255.203125 243.75 255.792969 243.546875 C 258.460938 242.613281 261.167969 241.671875 263.578125 240.160156 C 264.792969 239.402344 265.875 238.5 266.824219 237.425781 C 267.8125 236.3125 268.6875 235.097656 269.675781 233.984375 C 273.15625 230.078125 277.828125 226.992188 283.238281 227.160156 C 286.171875 227.253906 289.070312 228.230469 291.238281 230.246094 C 291.652344 230.632812 291.152344 231.253906 290.667969 231.023438 C 288.25 229.871094 285.445312 230.476562 283.167969 231.675781 C 280.722656 232.960938 278.90625 234.859375 277.070312 236.871094 C 273.796875 240.457031 269.574219 242.699219 264.832031 243.664062 C 262.078125 244.230469 259.261719 244.304688 256.472656 244.601562 C 255.847656 244.667969 255.820312 243.699219 256.433594 243.632812 " fill-opacity="1" fill-rule="nonzero"/></g></g></g><g clip-path="url(#8d60a3aaa3)"><g clip-path="url(#0258fe1542)"><g clip-path="url(#2a5ad2be1a)"><path fill="#ffffff" d="M 257.921875 243.503906 C 262.234375 242.417969 266.335938 240.601562 270.023438 238.121094 C 271.890625 236.863281 273.589844 235.425781 275.246094 233.914062 C 276.875 232.429688 278.527344 230.945312 280.496094 229.925781 C 280.863281 229.734375 281.207031 230.28125 280.835938 230.472656 C 278.78125 231.539062 277.089844 233.109375 275.390625 234.65625 C 273.746094 236.152344 272.039062 237.554688 270.183594 238.789062 C 266.5 241.238281 262.402344 243.042969 258.113281 244.125 C 257.707031 244.222656 257.519531 243.605469 257.921875 243.503906 " fill-opacity="1" fill-rule="nonzero"/></g></g></g><g clip-path="url(#75c5071ce0)"><g clip-path="url(#2c554b52e6)"><g clip-path="url(#a6e87daf7c)"><path fill="#ffffff" d="M 264.976562 225.449219 C 268.109375 222.324219 271.90625 219.894531 276.074219 218.402344 C 280.355469 216.867188 285.027344 216.378906 288.964844 213.980469 C 289.324219 213.761719 289.660156 214.3125 289.304688 214.53125 C 285.5 216.847656 281.027344 217.417969 276.867188 218.808594 C 272.566406 220.25 268.648438 222.695312 265.441406 225.894531 C 265.148438 226.1875 264.679688 225.742188 264.976562 225.449219 " fill-opacity="1" fill-rule="nonzero"/></g></g></g><g clip-path="url(#f4d1aaffd4)"><g clip-path="url(#86e94d3c6f)"><g clip-path="url(#412496e661)"><path fill="#ffffff" d="M 275.238281 204.9375 C 276.496094 203.242188 277.769531 201.539062 279.324219 200.101562 C 280.871094 198.675781 282.671875 197.578125 284.269531 196.21875 C 287.355469 193.59375 289.765625 190.253906 291.324219 186.515625 C 291.484375 186.132812 292.046875 186.445312 291.890625 186.824219 C 290.34375 190.539062 287.949219 193.886719 284.902344 196.519531 C 283.320312 197.890625 281.523438 198.988281 279.96875 200.386719 C 278.332031 201.855469 277.011719 203.628906 275.703125 205.382812 C 275.457031 205.714844 274.992188 205.265625 275.238281 204.9375 " fill-opacity="1" fill-rule="nonzero"/></g></g></g><g clip-path="url(#706acc2ece)"><g clip-path="url(#be0b0be997)"><g clip-path="url(#cd0a6724a3)"><path fill="#ffffff" d="M 278.101562 184.222656 C 277.789062 182.074219 277.476562 179.921875 277.164062 177.769531 C 276.859375 175.675781 276.46875 173.574219 276.328125 171.460938 C 276.261719 170.496094 276.277344 169.535156 276.390625 168.574219 C 276.519531 167.519531 276.75 166.480469 276.765625 165.417969 C 276.792969 163.519531 276.269531 161.664062 275.296875 160.039062 C 275.082031 159.683594 275.628906 159.34375 275.84375 159.699219 C 276.769531 161.238281 277.316406 162.976562 277.402344 164.769531 C 277.5 166.847656 276.855469 168.867188 276.945312 170.953125 C 277.039062 173.101562 277.445312 175.242188 277.753906 177.367188 C 278.085938 179.644531 278.414062 181.921875 278.746094 184.199219 C 278.804688 184.613281 278.160156 184.628906 278.101562 184.222656 " fill-opacity="1" fill-rule="nonzero"/></g></g></g><g clip-path="url(#e29540a3f4)"><g clip-path="url(#da41254d12)"><g clip-path="url(#e20eb67758)"><path fill="#ffffff" d="M 270.699219 212.660156 C 271.089844 210.320312 271.492188 207.953125 271.433594 205.574219 C 271.378906 203.46875 270.878906 201.441406 270.152344 199.472656 C 268.726562 195.609375 266.753906 192.019531 266.058594 187.914062 C 265.652344 185.507812 265.601562 183.066406 265.859375 180.636719 C 265.902344 180.226562 266.53125 180.378906 266.488281 180.789062 C 266.019531 185.230469 266.753906 189.566406 268.433594 193.6875 C 269.945312 197.386719 271.847656 201 272.0625 205.074219 C 272.195312 207.667969 271.753906 210.257812 271.328125 212.808594 C 271.257812 213.21875 270.628906 213.066406 270.699219 212.660156 " fill-opacity="1" fill-rule="nonzero"/></g></g></g><g clip-path="url(#13a9faaf30)"><g clip-path="url(#e2bc39fabb)"><g clip-path="url(#c3cd10cfb8)"><path fill="#ffffff" d="M 259.289062 230.109375 C 260.25 226.257812 260.0625 222.289062 259.773438 218.367188 C 259.628906 216.410156 259.460938 214.457031 259.402344 212.496094 C 259.347656 210.550781 259.53125 208.617188 259.515625 206.675781 C 259.507812 205.574219 259.382812 204.496094 259.027344 203.453125 C 258.65625 202.359375 258.082031 201.351562 257.519531 200.347656 C 257.316406 199.988281 257.863281 199.648438 258.070312 200.011719 C 258.992188 201.648438 259.851562 203.296875 260.078125 205.191406 C 260.320312 207.222656 260.019531 209.285156 260.027344 211.324219 C 260.050781 215.390625 260.652344 219.429688 260.660156 223.5 C 260.667969 225.773438 260.46875 228.046875 259.917969 230.261719 C 259.816406 230.664062 259.1875 230.515625 259.289062 230.109375 " fill-opacity="1" fill-rule="nonzero"/></g></g></g><g clip-path="url(#579a6c0f91)"><g clip-path="url(#4ffdf4049c)"><g clip-path="url(#ae4c0d5469)"><path fill="#ffffff" d="M 246.753906 244.378906 C 247.617188 243.144531 248.488281 241.839844 248.792969 240.34375 C 248.933594 239.664062 248.910156 238.960938 249.109375 238.292969 C 249.292969 237.683594 249.609375 237.152344 250.019531 236.667969 C 250.234375 236.414062 250.628906 236.667969 250.566406 236.964844 C 250.292969 238.328125 250.695312 239.777344 250.21875 241.09375 C 249.765625 242.34375 248.78125 243.304688 247.832031 244.195312 C 247.53125 244.476562 247.058594 244.035156 247.363281 243.75 C 248.308594 242.863281 249.363281 241.886719 249.703125 240.589844 C 249.871094 239.9375 249.769531 239.28125 249.761719 238.617188 C 249.75 238.011719 249.820312 237.410156 249.9375 236.816406 C 250.121094 236.914062 250.304688 237.015625 250.484375 237.113281 C 249.460938 238.324219 249.699219 239.757812 249.242188 241.175781 C 248.828125 242.457031 248.089844 243.59375 247.320312 244.6875 C 247.085938 245.023438 246.515625 244.71875 246.753906 244.378906 " fill-opacity="1" fill-rule="nonzero"/></g></g></g><g clip-path="url(#f3fafdaffd)"><g clip-path="url(#dc203328d3)"><g clip-path="url(#aca4406654)"><path fill="#ffffff" d="M 188.949219 169.671875 C 188.765625 170.546875 186 171.867188 184.417969 172.585938 C 184.410156 172.617188 184.410156 172.617188 184.371094 172.644531 C 184.238281 172.785156 181.429688 175.925781 175.265625 178.664062 C 174.746094 179.675781 173.882812 180.683594 172.664062 181.613281 C 170.394531 183.339844 167.625 184.351562 164.628906 184.5 L 152.210938 185.070312 C 152.105469 185.082031 152 185.09375 151.898438 185.105469 L 151.679688 185.164062 C 151.464844 185.21875 151.261719 185.378906 151.179688 185.601562 C 151.097656 185.820312 151.117188 186.0625 151.246094 186.257812 C 151.398438 186.496094 151.632812 186.679688 151.894531 186.734375 L 157.414062 188.816406 C 158.136719 189.105469 158.945312 189.3125 159.691406 189.5 C 159.976562 189.597656 160.269531 189.660156 160.523438 189.746094 C 161.972656 190.152344 163.46875 190.640625 164.570312 191.074219 C 166.648438 191.886719 167.003906 192.300781 166.953125 192.699219 C 166.898438 192.960938 166.746094 193.199219 166.507812 193.351562 C 165.207031 194.199219 161.058594 193.1875 160.574219 193.050781 C 150.683594 191.164062 138.871094 187.585938 138.746094 187.523438 C 138.648438 187.503906 131.777344 185.035156 122.457031 187.074219 C 114.816406 188.71875 110.449219 191.328125 110.410156 191.355469 C 110.332031 191.40625 110.261719 191.425781 110.164062 191.402344 C 110.066406 191.382812 110.007812 191.335938 109.953125 191.257812 C 109.851562 191.101562 109.894531 190.90625 110.050781 190.804688 C 110.089844 190.777344 114.570312 188.125 122.316406 186.433594 C 131.816406 184.363281 138.878906 186.90625 138.941406 186.921875 C 139.039062 186.941406 150.847656 190.554688 160.714844 192.402344 C 162.394531 192.824219 165.324219 193.304688 166.113281 192.792969 C 166.195312 192.742188 166.238281 192.683594 166.246094 192.652344 C 165.917969 192.277344 163.632812 191.320312 160.320312 190.382812 C 160.035156 190.289062 159.773438 190.234375 159.488281 190.136719 C 158.710938 189.941406 157.910156 189.703125 157.15625 189.40625 L 151.632812 187.324219 C 151.214844 187.203125 150.863281 186.925781 150.632812 186.570312 C 150.375 186.175781 150.335938 185.726562 150.496094 185.285156 C 150.65625 184.84375 151.027344 184.546875 151.457031 184.4375 L 151.675781 184.378906 C 151.820312 184.34375 151.964844 184.304688 152.132812 184.308594 L 164.550781 183.738281 C 167.410156 183.59375 170.058594 182.660156 172.214844 181.007812 C 173.03125 180.367188 173.71875 179.695312 174.167969 179.011719 C 173.683594 179.214844 173.164062 179.410156 172.648438 179.605469 C 171.394531 180.054688 170.078125 180.320312 168.730469 180.410156 L 150.992188 181.484375 C 150.960938 181.480469 150.925781 181.472656 150.894531 181.464844 C 150.761719 181.4375 150.652344 181.3125 150.617188 181.167969 C 150.617188 181 150.757812 180.824219 150.925781 180.828125 L 168.664062 179.75 C 169.941406 179.679688 171.222656 179.40625 172.40625 178.976562 C 177.832031 177 181.230469 174.457031 182.777344 173.085938 L 171.800781 176.675781 C 168.253906 177.828125 164.589844 178.246094 160.871094 177.933594 L 149.703125 176.933594 C 149.535156 176.933594 149.398438 176.769531 149.40625 176.566406 C 149.410156 176.398438 149.574219 176.261719 149.777344 176.269531 L 160.945312 177.269531 C 164.554688 177.59375 168.148438 177.195312 171.589844 176.054688 L 183.015625 172.289062 C 184.261719 171.871094 188.089844 170.03125 188.222656 169.414062 C 188.285156 169.121094 188.207031 168.835938 187.980469 168.617188 C 187.789062 168.40625 187.5 168.3125 187.1875 168.347656 L 167.929688 171.445312 C 167.472656 171.519531 166.996094 171.519531 166.539062 171.425781 C 160.101562 170.132812 154.523438 168.480469 149.960938 166.53125 C 145.617188 164.664062 143.621094 163.15625 142.953125 162.605469 C 142.234375 161.980469 142.144531 160.941406 142.742188 160.21875 C 143.429688 159.378906 144.371094 158.796875 145.4375 158.582031 C 148.144531 158.03125 154.625 156.378906 156.480469 153.238281 C 157.335938 151.757812 157.171875 151.246094 157.0625 151.121094 C 156.738281 150.714844 155.464844 150.953125 154.6875 151.230469 C 154.6875 151.230469 154.65625 151.222656 154.648438 151.257812 L 135.492188 156.140625 C 130.496094 157.054688 125.609375 160.199219 121.667969 162.730469 C 120.246094 163.652344 118.90625 164.523438 117.753906 165.128906 L 102.34375 173.25 C 102.265625 173.300781 102.199219 173.289062 102.136719 173.273438 C 102.039062 173.253906 101.945312 173.199219 101.902344 173.089844 C 101.796875 172.933594 101.878906 172.710938 102.03125 172.640625 L 117.492188 164.597656 C 118.609375 163.984375 119.953125 163.113281 121.367188 162.226562 C 125.347656 159.667969 130.3125 156.472656 135.414062 155.546875 L 154.539062 150.65625 C 154.832031 150.546875 156.894531 149.828125 157.65625 150.738281 C 158.113281 151.308594 157.953125 152.226562 157.148438 153.617188 C 155.238281 156.847656 149.15625 158.550781 145.664062 159.273438 C 144.773438 159.460938 143.953125 159.964844 143.355469 160.6875 C 142.988281 161.152344 143.050781 161.8125 143.484375 162.175781 C 149.371094 167.222656 165 170.488281 166.761719 170.859375 C 167.152344 170.941406 167.523438 170.953125 167.910156 170.898438 L 187.164062 167.800781 C 187.664062 167.703125 188.171875 167.875 188.535156 168.257812 C 188.894531 168.640625 189.054688 169.183594 188.949219 169.671875 Z M 270.667969 151.171875 C 270.558594 151.214844 259.199219 154.65625 253.011719 158.308594 C 246.199219 162.335938 235.601562 163.96875 227.199219 162.296875 C 219.773438 160.832031 212.265625 162.84375 210.113281 163.511719 C 209.417969 163.738281 208.691406 163.789062 208.039062 163.652344 C 208.007812 163.644531 207.972656 163.636719 207.941406 163.628906 C 207.027344 163.4375 206.714844 162.996094 206.585938 162.628906 C 206.328125 161.761719 206.953125 160.570312 208.566406 158.90625 C 210.082031 157.359375 212.546875 156.351562 215.648438 156.019531 C 217.773438 155.792969 219.511719 155.953125 219.851562 155.957031 L 224.613281 154.859375 L 206.535156 149.648438 L 204.386719 149.976562 C 203.796875 150.835938 200.425781 155.660156 196.191406 157.007812 C 195.09375 157.351562 194.257812 157.445312 193.671875 157.324219 C 193.34375 157.253906 193.105469 157.101562 192.910156 156.890625 C 192.285156 156.148438 192.921875 154.890625 192.992188 154.734375 C 192.996094 154.703125 193.035156 154.675781 193.035156 154.675781 L 196.539062 150.832031 C 192.863281 151.144531 188.457031 151.367188 186.757812 151.007812 C 186.5625 150.96875 186.402344 150.933594 186.285156 150.839844 C 185.667969 150.539062 185.371094 150.171875 185.359375 149.726562 C 185.363281 148.914062 186.492188 148.40625 186.6875 148.277344 C 186.6875 148.277344 186.722656 148.285156 186.730469 148.25 L 202.511719 143.367188 L 207.878906 139.40625 C 208.996094 138.625 210.296875 138.117188 211.632812 137.925781 L 213.378906 136.59375 C 215.847656 134.738281 218.75 133.417969 221.796875 132.871094 L 226.511719 132 C 223.6875 129.875 220.835938 129.988281 220.804688 129.980469 C 220.523438 130.023438 213.378906 130.789062 211.480469 129.605469 C 211.242188 129.453125 210.519531 128.996094 210.617188 128.371094 C 210.730469 127.683594 211.738281 127.421875 211.921875 127.359375 L 223.898438 124.691406 C 225.042969 124.425781 226.230469 124.605469 227.277344 125.132812 L 227.832031 125.421875 C 239.492188 131.820312 248.859375 133.289062 254.664062 133.394531 C 260.9375 133.53125 264.46875 132.136719 264.507812 132.113281 C 264.691406 132.046875 264.878906 132.121094 264.941406 132.304688 C 265.007812 132.488281 264.933594 132.675781 264.75 132.738281 C 264.597656 132.808594 261.035156 134.195312 254.65625 134.070312 C 248.789062 133.953125 239.292969 132.457031 227.539062 126.003906 L 227 125.652344 C 226.109375 125.191406 225.082031 125.042969 224.082031 125.273438 L 212.136719 127.945312 C 211.777344 128.039062 211.355469 128.257812 211.324219 128.417969 C 211.308594 128.484375 211.398438 128.707031 211.878906 129.011719 C 213.296875 129.886719 218.796875 129.488281 220.785156 129.261719 C 220.957031 129.265625 224.355469 129.132812 227.519531 131.90625 C 227.601562 131.992188 227.648438 132.105469 227.621094 132.234375 C 227.59375 132.363281 227.472656 132.441406 227.363281 132.484375 L 221.941406 133.480469 C 219 134.011719 216.175781 135.285156 213.785156 137.089844 L 212.847656 137.808594 L 221.964844 137.558594 C 222.132812 137.5625 222.308594 137.699219 222.308594 137.871094 C 222.304688 138.039062 222.167969 138.214844 221.996094 138.210938 L 212.679688 138.449219 C 211.070312 138.484375 209.570312 138.984375 208.246094 139.925781 L 204.414062 142.75 L 206.5625 142.082031 C 207.546875 141.78125 208.582031 141.726562 209.589844 141.941406 L 219.050781 143.9375 C 219.246094 143.980469 219.347656 144.136719 219.308594 144.332031 C 219.265625 144.527344 219.109375 144.628906 218.914062 144.589844 L 209.453125 142.589844 C 208.574219 142.40625 207.644531 142.449219 206.773438 142.703125 L 187.003906 148.886719 C 186.621094 149.078125 186.070312 149.4375 186.078125 149.710938 C 186.085938 149.847656 186.277344 150.058594 186.617188 150.230469 C 187.574219 150.703125 192.59375 150.476562 197.378906 150.09375 C 197.378906 150.09375 197.410156 150.097656 197.410156 150.097656 C 199.070312 149.976562 200.675781 149.804688 202.101562 149.664062 L 206.5 148.996094 C 206.539062 148.972656 206.605469 148.984375 206.636719 148.992188 L 230.109375 155.78125 C 230.304688 155.824219 230.398438 156.011719 230.324219 156.199219 C 230.292969 156.363281 230.09375 156.492188 229.90625 156.417969 L 225.921875 155.269531 L 219.972656 156.664062 C 219.941406 156.65625 219.902344 156.683594 219.871094 156.675781 C 219.804688 156.660156 212.503906 155.902344 209.070312 159.421875 C 207.238281 161.308594 207.132812 162.136719 207.234375 162.460938 C 207.328125 162.820312 207.8125 162.957031 208.171875 163.035156 C 208.726562 163.148438 209.3125 163.105469 209.902344 162.890625 C 212.085938 162.230469 219.75 160.148438 227.304688 161.640625 C 235.542969 163.277344 245.964844 161.675781 252.660156 157.726562 C 258.953125 154.0625 270.355469 150.5625 270.457031 150.550781 C 270.640625 150.488281 270.824219 150.59375 270.886719 150.777344 C 270.953125 150.960938 270.84375 151.140625 270.667969 151.171875 Z M 203.503906 150.128906 L 202.199219 150.328125 C 201.707031 150.394531 199.863281 150.582031 197.574219 150.777344 L 193.589844 155.132812 C 193.460938 155.410156 193.164062 156.164062 193.4375 156.492188 C 193.574219 156.65625 194.085938 156.96875 195.980469 156.386719 C 199.449219 155.285156 202.410156 151.597656 203.503906 150.128906 Z M 182.105469 126.257812 C 182.140625 126.09375 182.265625 125.984375 182.4375 125.988281 C 185.824219 125.921875 186.492188 125.484375 187.921875 122.425781 C 187.988281 122.269531 188.140625 122.199219 188.304688 122.234375 C 188.46875 122.269531 188.578125 122.394531 188.574219 122.5625 C 188.644531 125.941406 189.082031 126.609375 192.15625 128.039062 C 192.3125 128.105469 192.382812 128.257812 192.347656 128.417969 C 192.3125 128.582031 192.1875 128.691406 192.015625 128.6875 C 188.628906 128.753906 187.960938 129.191406 186.53125 132.25 C 186.464844 132.40625 186.3125 132.476562 186.148438 132.441406 C 185.984375 132.40625 185.875 132.28125 185.878906 132.113281 C 185.808594 128.734375 185.371094 128.066406 182.296875 126.636719 C 182.140625 126.570312 182.070312 126.417969 182.105469 126.257812 Z M 183.703125 126.59375 C 185.660156 127.652344 186.277344 128.597656 186.460938 130.808594 C 187.519531 128.859375 188.464844 128.246094 190.683594 128.066406 C 188.726562 127.011719 188.109375 126.0625 187.929688 123.851562 C 186.871094 125.804688 185.921875 126.417969 183.703125 126.59375 Z M 203.746094 184.476562 C 203.710938 184.636719 203.585938 184.746094 203.414062 184.746094 C 200.539062 184.816406 199.984375 185.175781 198.757812 187.769531 C 198.691406 187.925781 198.539062 187.992188 198.375 187.960938 C 198.210938 187.925781 198.101562 187.800781 198.105469 187.628906 C 198.027344 184.761719 197.667969 184.210938 195.066406 182.980469 C 194.910156 182.914062 194.839844 182.765625 194.875 182.601562 C 194.910156 182.441406 195.035156 182.332031 195.203125 182.332031 C 198.082031 182.261719 198.632812 181.902344 199.863281 179.308594 C 199.929688 179.152344 200.078125 179.082031 200.242188 179.117188 C 200.40625 179.152344 200.515625 179.277344 200.515625 179.445312 C 200.589844 182.316406 200.949219 182.867188 203.550781 184.09375 C 203.703125 184.195312 203.773438 184.34375 203.746094 184.476562 Z M 202.148438 184.136719 C 200.625 183.273438 200.078125 182.480469 199.933594 180.75 C 199.066406 182.265625 198.269531 182.808594 196.539062 182.953125 C 198.058594 183.816406 198.605469 184.613281 198.75 186.339844 C 199.585938 184.820312 200.40625 184.3125 202.148438 184.136719 Z M 225.117188 174.898438 C 225.082031 175.058594 224.925781 175.160156 224.753906 175.160156 L 220.933594 174.863281 L 219.664062 178.464844 C 219.597656 178.621094 219.4375 178.722656 219.273438 178.6875 C 219.113281 178.652344 219.007812 178.496094 219.011719 178.328125 L 219.304688 174.519531 L 215.683594 173.277344 C 215.527344 173.210938 215.421875 173.054688 215.457031 172.890625 C 215.492188 172.726562 215.648438 172.625 215.820312 172.628906 L 219.640625 172.925781 L 220.90625 169.355469 C 220.972656 169.199219 221.128906 169.097656 221.292969 169.132812 C 221.457031 169.167969 221.558594 169.324219 221.558594 169.492188 L 221.269531 173.269531 L 224.886719 174.542969 C 225.082031 174.582031 225.152344 174.734375 225.117188 174.898438 Z M 222.246094 174.289062 L 220.855469 173.792969 C 220.699219 173.726562 220.621094 173.609375 220.621094 173.4375 L 220.730469 171.964844 L 220.230469 173.355469 C 220.164062 173.511719 220.046875 173.589844 219.875 173.585938 L 218.398438 173.476562 L 219.792969 173.976562 C 219.949219 174.042969 220.027344 174.160156 220.023438 174.332031 L 219.917969 175.800781 L 220.417969 174.414062 C 220.484375 174.257812 220.601562 174.179688 220.773438 174.183594 Z M 166.265625 154.492188 C 166.300781 154.328125 166.457031 154.226562 166.628906 154.226562 L 170.449219 154.523438 L 171.71875 150.921875 C 171.785156 150.765625 171.945312 150.664062 172.109375 150.699219 C 172.269531 150.734375 172.375 150.890625 172.371094 151.058594 L 172.085938 154.835938 L 175.699219 156.109375 C 175.855469 156.175781 175.960938 156.332031 175.925781 156.496094 C 175.890625 156.660156 175.734375 156.761719 175.5625 156.757812 L 171.742188 156.460938 L 170.472656 160.0625 C 170.402344 160.21875 170.246094 160.324219 170.082031 160.289062 C 169.917969 160.253906 169.816406 160.097656 169.820312 159.925781 L 170.113281 156.117188 L 166.488281 154.878906 C 166.300781 154.804688 166.230469 154.652344 166.265625 154.492188 Z M 169.136719 155.097656 L 170.527344 155.59375 C 170.683594 155.660156 170.761719 155.78125 170.761719 155.949219 L 170.65625 157.421875 L 171.152344 156.03125 C 171.21875 155.875 171.335938 155.800781 171.507812 155.800781 L 172.984375 155.910156 L 171.589844 155.410156 C 171.433594 155.34375 171.355469 155.226562 171.359375 155.054688 L 171.464844 153.585938 L 170.964844 154.972656 C 170.898438 155.128906 170.78125 155.207031 170.609375 155.203125 Z M 162.855469 137.878906 C 163.019531 137.097656 163.8125 136.585938 164.59375 136.753906 C 165.375 136.917969 165.890625 137.707031 165.726562 138.484375 C 165.5625 139.265625 164.773438 139.777344 163.988281 139.613281 C 163.207031 139.449219 162.691406 138.660156 162.855469 137.878906 Z M 163.507812 138.015625 C 163.417969 138.441406 163.703125 138.875 164.128906 138.960938 C 164.550781 139.050781 164.984375 138.769531 165.074219 138.347656 C 165.164062 137.925781 164.878906 137.492188 164.457031 137.402344 C 164.03125 137.3125 163.597656 137.59375 163.507812 138.015625 Z M 197.503906 132.871094 C 197.664062 132.121094 198.421875 131.601562 199.203125 131.769531 C 199.953125 131.925781 200.476562 132.683594 200.308594 133.460938 C 200.144531 134.242188 199.394531 134.730469 198.613281 134.5625 C 197.828125 134.398438 197.339844 133.648438 197.503906 132.871094 Z M 198.15625 133.007812 C 198.074219 133.398438 198.324219 133.824219 198.75 133.914062 C 199.175781 134.003906 199.570312 133.746094 199.65625 133.324219 C 199.746094 132.902344 199.488281 132.507812 199.066406 132.417969 C 198.640625 132.328125 198.238281 132.617188 198.15625 133.007812 Z M 212.15625 169.816406 C 212.003906 170.53125 211.332031 170.96875 210.613281 170.816406 C 209.898438 170.664062 209.460938 169.996094 209.609375 169.28125 C 209.761719 168.5625 210.464844 168.136719 211.148438 168.28125 C 211.835938 168.425781 212.296875 169.132812 212.15625 169.816406 Z M 211.503906 169.679688 C 211.570312 169.355469 211.339844 169 211.011719 168.929688 C 210.6875 168.863281 210.332031 169.09375 210.261719 169.417969 C 210.195312 169.742188 210.425781 170.097656 210.753906 170.164062 C 211.109375 170.242188 211.425781 170.035156 211.503906 169.679688 Z M 184.152344 184.175781 C 183.992188 184.921875 183.242188 185.410156 182.492188 185.25 C 181.742188 185.09375 181.253906 184.34375 181.410156 183.597656 C 181.570312 182.847656 182.320312 182.363281 183.070312 182.519531 C 183.820312 182.679688 184.308594 183.425781 184.152344 184.175781 Z M 183.5 184.039062 C 183.582031 183.648438 183.324219 183.253906 182.933594 183.171875 C 182.539062 183.085938 182.144531 183.34375 182.0625 183.734375 C 181.980469 184.125 182.238281 184.519531 182.628906 184.601562 C 183.023438 184.683594 183.417969 184.425781 183.5 184.039062 Z M 183.5 184.039062 " fill-opacity="1" fill-rule="nonzero"/></g></g></g><g fill="#ffffff" fill-opacity="1"><g transform="translate(160.4268, 254.846207)"><g><path d="M 16.484375 -2.734375 L 18.640625 0 L 16.125 0 L 2.90625 -16.78125 L 2.90625 -4.53125 C 2.90625 -3.882812 2.941406 -3.296875 3.015625 -2.765625 C 3.085938 -2.242188 3.171875 -1.796875 3.265625 -1.421875 C 3.367188 -1.046875 3.476562 -0.753906 3.59375 -0.546875 C 3.71875 -0.347656 3.835938 -0.25 3.953125 -0.25 L 3.953125 0 L 1.609375 0 L 1.609375 -0.25 C 1.710938 -0.25 1.820312 -0.347656 1.9375 -0.546875 C 2.0625 -0.753906 2.175781 -1.046875 2.28125 -1.421875 C 2.382812 -1.796875 2.472656 -2.242188 2.546875 -2.765625 C 2.617188 -3.296875 2.65625 -3.882812 2.65625 -4.53125 L 2.65625 -17.09375 L 0.828125 -19.421875 L 3.34375 -19.421875 L 16.234375 -3.046875 L 16.234375 -14.90625 C 16.234375 -15.550781 16.195312 -16.132812 16.125 -16.65625 C 16.050781 -17.1875 15.960938 -17.632812 15.859375 -18 C 15.753906 -18.375 15.640625 -18.660156 15.515625 -18.859375 C 15.398438 -19.066406 15.289062 -19.171875 15.1875 -19.171875 L 15.1875 -19.421875 L 17.53125 -19.421875 L 17.53125 -19.171875 C 17.425781 -19.171875 17.3125 -19.066406 17.1875 -18.859375 C 17.070312 -18.660156 16.960938 -18.375 16.859375 -18 C 16.753906 -17.632812 16.664062 -17.1875 16.59375 -16.65625 C 16.519531 -16.132812 16.484375 -15.550781 16.484375 -14.90625 Z M 16.484375 -2.734375 "/></g></g></g><g fill="#ffffff" fill-opacity="1"><g transform="translate(179.893869, 254.846207)"><g><path d="M 12.71875 -3.625 C 12.519531 -4.226562 12.25 -4.820312 11.90625 -5.40625 C 11.5625 -5.988281 11.160156 -6.507812 10.703125 -6.96875 C 10.242188 -7.425781 9.726562 -7.804688 9.15625 -8.109375 C 8.582031 -8.421875 7.957031 -8.613281 7.28125 -8.6875 C 7.019531 -8.707031 6.75 -8.703125 6.46875 -8.671875 C 6.195312 -8.640625 5.929688 -8.578125 5.671875 -8.484375 C 5.410156 -8.398438 5.171875 -8.273438 4.953125 -8.109375 C 4.742188 -7.941406 4.597656 -7.71875 4.515625 -7.4375 L 3.15625 -3.40625 C 2.78125 -2.351562 2.597656 -1.5625 2.609375 -1.03125 C 2.617188 -0.507812 2.8125 -0.25 3.1875 -0.25 L 3.1875 0 L 0.828125 0 L 0.828125 -0.25 C 0.941406 -0.25 1.070312 -0.296875 1.21875 -0.390625 C 1.363281 -0.492188 1.523438 -0.671875 1.703125 -0.921875 C 1.878906 -1.171875 2.066406 -1.503906 2.265625 -1.921875 C 2.472656 -2.335938 2.6875 -2.859375 2.90625 -3.484375 L 7.828125 -17.890625 L 7.296875 -19.421875 L 9.40625 -19.421875 L 14.6875 -4.015625 C 14.875 -3.492188 15.050781 -3.003906 15.21875 -2.546875 C 15.394531 -2.085938 15.5625 -1.6875 15.71875 -1.34375 C 15.875 -1 16.015625 -0.726562 16.140625 -0.53125 C 16.273438 -0.34375 16.398438 -0.25 16.515625 -0.25 L 16.515625 0 L 13.28125 0 L 13.28125 -0.25 C 13.363281 -0.25 13.390625 -0.503906 13.359375 -1.015625 C 13.335938 -1.535156 13.195312 -2.179688 12.9375 -2.953125 Z M 4.8125 -8.265625 C 5.125 -8.566406 5.507812 -8.753906 5.96875 -8.828125 C 6.4375 -8.910156 6.875 -8.9375 7.28125 -8.90625 C 8.320312 -8.8125 9.238281 -8.457031 10.03125 -7.84375 C 10.832031 -7.238281 11.5 -6.515625 12.03125 -5.671875 L 7.96875 -17.5 Z M 4.8125 -8.265625 "/></g></g></g><g fill="#ffffff" fill-opacity="1"><g transform="translate(197.231715, 254.846207)"><g><path d="M 14.1875 -19.421875 L 16.53125 -19.421875 L 16.53125 -19.171875 C 16.425781 -19.171875 16.300781 -19.117188 16.15625 -19.015625 C 16.007812 -18.910156 15.84375 -18.734375 15.65625 -18.484375 C 15.46875 -18.234375 15.269531 -17.90625 15.0625 -17.5 C 14.863281 -17.09375 14.664062 -16.578125 14.46875 -15.953125 L 9.515625 -1.546875 L 10.046875 0 L 7.96875 0 L 2.6875 -15.40625 C 2.5 -15.914062 2.316406 -16.398438 2.140625 -16.859375 C 1.960938 -17.328125 1.796875 -17.726562 1.640625 -18.0625 C 1.484375 -18.40625 1.335938 -18.675781 1.203125 -18.875 C 1.066406 -19.070312 0.941406 -19.171875 0.828125 -19.171875 L 0.828125 -19.421875 L 4.09375 -19.421875 L 4.09375 -19.171875 C 3.976562 -19.171875 3.9375 -18.914062 3.96875 -18.40625 C 4.007812 -17.894531 4.148438 -17.253906 4.390625 -16.484375 L 9.40625 -1.90625 L 14.21875 -16.015625 C 14.9375 -18.117188 14.925781 -19.171875 14.1875 -19.171875 Z M 14.1875 -19.421875 "/></g></g></g><g fill="#ffffff" fill-opacity="1"><g transform="translate(214.597224, 254.846207)"><g><path d="M 4.09375 -19.171875 C 4.039062 -19.171875 3.972656 -19.140625 3.890625 -19.078125 C 3.816406 -19.023438 3.75 -18.925781 3.6875 -18.78125 C 3.625 -18.632812 3.5625 -18.421875 3.5 -18.140625 C 3.445312 -17.867188 3.421875 -17.5 3.421875 -17.03125 L 3.421875 -2.375 C 3.421875 -1.9375 3.445312 -1.570312 3.5 -1.28125 C 3.5625 -1 3.625 -0.785156 3.6875 -0.640625 C 3.75 -0.492188 3.816406 -0.390625 3.890625 -0.328125 C 3.972656 -0.273438 4.039062 -0.25 4.09375 -0.25 L 4.09375 0 L 0.828125 0 L 0.828125 -0.25 C 0.867188 -0.25 0.925781 -0.273438 1 -0.328125 C 1.070312 -0.390625 1.140625 -0.492188 1.203125 -0.640625 C 1.265625 -0.785156 1.320312 -1 1.375 -1.28125 C 1.4375 -1.570312 1.46875 -1.9375 1.46875 -2.375 L 1.46875 -17.03125 C 1.46875 -17.5 1.4375 -17.867188 1.375 -18.140625 C 1.320312 -18.421875 1.265625 -18.632812 1.203125 -18.78125 C 1.140625 -18.925781 1.070312 -19.023438 1 -19.078125 C 0.925781 -19.140625 0.867188 -19.171875 0.828125 -19.171875 L 0.828125 -19.421875 L 4.09375 -19.421875 Z M 4.09375 -19.171875 "/></g></g></g><g fill="#ffffff" fill-opacity="1"><g transform="translate(219.511413, 254.846207)"><g/></g></g></svg>