<svg xmlns="http://www.w3.org/2000/svg" xmlns:xlink="http://www.w3.org/1999/xlink" width="500" zoomAndPan="magnify" viewBox="0 0 375 374.999991" height="500" preserveAspectRatio="xMidYMid meet" version="1.0"><defs><clipPath id="02cd74c928"><path d="M 89.152344 29.757812 L 285.652344 29.757812 L 285.652344 332 L 89.152344 332 Z M 89.152344 29.757812 " clip-rule="nonzero"/></clipPath></defs><g clip-path="url(#02cd74c928)"><path fill="#ff1616" d="M 285.652344 128.425781 C 285.652344 74.054688 241.667969 29.988281 187.414062 29.988281 C 133.152344 29.988281 89.152344 74.054688 89.152344 128.425781 C 89.152344 129.386719 89.28125 130.347656 89.292969 131.3125 C 89.292969 131.335938 89.226562 131.335938 89.226562 131.335938 C 89.226562 133.527344 89.386719 135.820312 89.640625 138.195312 C 89.691406 138.636719 89.757812 139.042969 89.78125 139.480469 C 90.035156 141.496094 90.355469 143.582031 90.75 145.707031 C 91.003906 147.207031 91.273438 148.683594 91.621094 150.132812 C 106.621094 216.847656 187.390625 331.785156 187.390625 331.785156 C 187.390625 331.785156 259.90625 226.554688 280.328125 160.195312 C 281.941406 155.394531 283.207031 150.441406 284.089844 145.351562 C 285.046875 140.300781 285.648438 135.589844 285.648438 131.335938 C 285.648438 131.015625 285.53125 130.734375 285.53125 130.425781 C 285.542969 129.75 285.652344 129.109375 285.652344 128.425781 Z M 187.414062 179.792969 C 158.664062 179.792969 135.375 156.46875 135.375 127.695312 C 135.375 98.917969 158.652344 75.589844 187.414062 75.589844 C 216.121094 75.589844 239.425781 98.914062 239.425781 127.695312 C 239.425781 156.460938 216.121094 179.792969 187.414062 179.792969 Z M 187.414062 179.792969 " fill-opacity="1" fill-rule="nonzero"/></g></svg>