<svg xmlns="http://www.w3.org/2000/svg" xmlns:xlink="http://www.w3.org/1999/xlink" width="500" zoomAndPan="magnify" viewBox="0 0 375 374.999991" height="500" preserveAspectRatio="xMidYMid meet" version="1.0"><defs><clipPath id="d940ce696c"><path d="M 60.296875 60.296875 L 314.546875 60.296875 L 314.546875 314.546875 L 60.296875 314.546875 Z M 60.296875 60.296875 " clip-rule="nonzero"/></clipPath></defs><path fill="#ffffff" d="M 187.421875 64.148438 C 255.496094 64.148438 310.691406 119.339844 310.691406 187.421875 C 310.691406 255.496094 255.496094 310.691406 187.421875 310.691406 C 119.339844 310.691406 64.148438 255.496094 64.148438 187.421875 C 64.148438 119.339844 119.339844 64.148438 187.421875 64.148438 Z M 187.421875 64.148438 " fill-opacity="1" fill-rule="nonzero"/><g clip-path="url(#d940ce696c)"><path fill="#020202" d="M 187.421875 314.546875 C 117.324219 314.546875 60.296875 257.511719 60.296875 187.421875 C 60.296875 117.324219 117.324219 60.296875 187.421875 60.296875 C 257.511719 60.296875 314.546875 117.324219 314.546875 187.421875 C 314.546875 257.511719 257.511719 314.546875 187.421875 314.546875 Z M 187.421875 68 C 121.574219 68 68 121.570312 68 187.421875 C 68 253.273438 121.574219 306.84375 187.421875 306.84375 C 253.265625 306.84375 306.84375 253.269531 306.84375 187.421875 C 306.84375 121.574219 253.273438 68 187.421875 68 Z M 187.421875 68 " fill-opacity="1" fill-rule="nonzero"/></g><path fill="#000000" d="M 197.632812 235.5 L 150.679688 186.742188 L 197.722656 139.34375 L 208.667969 150.207031 L 172.226562 186.914062 L 208.746094 224.816406 Z M 197.632812 235.5 " fill-opacity="1" fill-rule="nonzero"/></svg>