<svg xmlns="http://www.w3.org/2000/svg" xmlns:xlink="http://www.w3.org/1999/xlink" width="500" zoomAndPan="magnify" viewBox="0 0 375 374.999991" height="500" preserveAspectRatio="xMidYMid meet" version="1.0"><defs><clipPath id="5aff617a14"><path d="M 44.8125 44.8125 L 337.3125 44.8125 L 337.3125 337.3125 L 44.8125 337.3125 Z M 44.8125 44.8125 " clip-rule="nonzero"/></clipPath></defs><path fill="#000000" d="M 173.089844 266.964844 C 173.089844 256.339844 180.699219 248.65625 191.058594 248.65625 C 202.019531 248.65625 209.023438 256.339844 209.023438 266.964844 C 209.023438 277.304688 202.019531 285.273438 191.058594 285.273438 C 180.398438 285.273438 173.089844 277.304688 173.089844 266.964844 Z M 179.347656 222.46875 L 170.890625 117.378906 C 170.46875 112.121094 179.703125 107.835938 191.058594 107.835938 C 202.421875 107.835938 211.648438 112.148438 211.226562 117.378906 L 202.769531 222.46875 C 202.480469 226.039062 197.339844 228.851562 191.058594 228.851562 C 184.789062 228.851562 179.636719 226.039062 179.347656 222.46875 Z M 179.347656 222.46875 " fill-opacity="1" fill-rule="nonzero"/><g clip-path="url(#5aff617a14)"><path fill="#020202" d="M 191.058594 337.300781 C 110.417969 337.300781 44.8125 271.699219 44.8125 191.058594 C 44.8125 110.417969 110.417969 44.8125 191.058594 44.8125 C 271.699219 44.8125 337.300781 110.417969 337.300781 191.058594 C 337.300781 271.699219 271.699219 337.300781 191.058594 337.300781 Z M 191.058594 69.746094 C 124.164062 69.746094 69.746094 124.164062 69.746094 191.058594 C 69.746094 257.949219 124.164062 312.367188 191.058594 312.367188 C 257.949219 312.367188 312.367188 257.949219 312.367188 191.058594 C 312.367188 124.164062 257.949219 69.746094 191.058594 69.746094 Z M 191.058594 69.746094 " fill-opacity="1" fill-rule="nonzero"/></g></svg>