<svg xmlns="http://www.w3.org/2000/svg" xmlns:xlink="http://www.w3.org/1999/xlink" width="500" zoomAndPan="magnify" viewBox="0 0 375 374.999991" height="500" preserveAspectRatio="xMidYMid meet" version="1.0"><defs><clipPath id="c90abbc626"><path d="M 42.699219 42.699219 L 337.449219 42.699219 L 337.449219 337.449219 L 42.699219 337.449219 Z M 42.699219 42.699219 " clip-rule="nonzero"/></clipPath></defs><g clip-path="url(#c90abbc626)"><path fill="#000000" d="M 200.441406 216.089844 L 172.363281 188.011719 L 144.238281 244.214844 Z M 215.476562 217.265625 L 259.710938 128.796875 L 171.242188 173.03125 L 127.007812 261.503906 Z M 181.882812 75.496094 C 109.355469 77.910156 53.21875 162.65625 82.078125 229.910156 C 102.332031 286.164062 171.613281 321.226562 227.777344 298.71875 C 280.707031 280.601562 316.90625 220.398438 302.183594 165.179688 C 290.800781 112.632812 239.738281 71.136719 185.257812 75.429688 L 183.222656 75.46875 Z M 337.367188 190.105469 C 337.367188 271.46875 271.40625 337.433594 190.039062 337.433594 C 108.671875 337.433594 42.710938 271.472656 42.710938 190.105469 C 42.710938 108.734375 108.671875 42.773438 190.039062 42.773438 C 271.40625 42.773438 337.367188 108.734375 337.367188 190.105469 Z M 337.367188 190.105469 " fill-opacity="1" fill-rule="evenodd"/></g></svg>