<svg xmlns="http://www.w3.org/2000/svg" xmlns:xlink="http://www.w3.org/1999/xlink" width="500" zoomAndPan="magnify" viewBox="0 0 375 374.999991" height="500" preserveAspectRatio="xMidYMid meet" version="1.0"><defs><clipPath id="14dcd10851"><path d="M 45.90625 54.3125 L 329.40625 54.3125 L 329.40625 337.8125 L 45.90625 337.8125 Z M 45.90625 54.3125 " clip-rule="nonzero"/></clipPath></defs><g clip-path="url(#14dcd10851)"><path fill="#000000" d="M 71.679688 157.402344 L 45.90625 157.402344 L 45.90625 92.972656 C 45.90625 91.707031 45.96875 90.441406 46.09375 89.183594 C 46.214844 87.921875 46.402344 86.671875 46.648438 85.429688 C 46.894531 84.1875 47.203125 82.960938 47.570312 81.75 C 47.9375 80.539062 48.363281 79.347656 48.847656 78.175781 C 49.332031 77.007812 49.875 75.863281 50.472656 74.746094 C 51.066406 73.632812 51.71875 72.546875 52.421875 71.492188 C 53.125 70.441406 53.878906 69.425781 54.679688 68.445312 C 55.484375 67.46875 56.332031 66.53125 57.230469 65.636719 C 58.125 64.738281 59.0625 63.890625 60.039062 63.085938 C 61.019531 62.285156 62.035156 61.53125 63.085938 60.828125 C 64.140625 60.125 65.226562 59.472656 66.339844 58.878906 C 67.457031 58.28125 68.601562 57.738281 69.769531 57.253906 C 70.941406 56.769531 72.132812 56.34375 73.34375 55.976562 C 74.554688 55.609375 75.78125 55.300781 77.023438 55.054688 C 78.265625 54.808594 79.515625 54.621094 80.777344 54.5 C 82.035156 54.375 83.300781 54.3125 84.566406 54.3125 L 148.996094 54.3125 L 148.996094 80.085938 L 84.566406 80.085938 C 83.71875 80.085938 82.882812 80.167969 82.050781 80.332031 C 81.222656 80.496094 80.414062 80.742188 79.632812 81.066406 C 78.851562 81.390625 78.109375 81.785156 77.40625 82.257812 C 76.703125 82.726562 76.050781 83.261719 75.453125 83.859375 C 74.855469 84.457031 74.320312 85.109375 73.851562 85.8125 C 73.378906 86.515625 72.984375 87.257812 72.660156 88.039062 C 72.335938 88.820312 72.089844 89.628906 71.925781 90.457031 C 71.761719 91.289062 71.679688 92.125 71.679688 92.972656 Z M 329.40625 92.972656 C 329.40625 91.707031 329.34375 90.441406 329.21875 89.183594 C 329.097656 87.921875 328.910156 86.671875 328.664062 85.429688 C 328.417969 84.1875 328.109375 82.960938 327.742188 81.75 C 327.375 80.539062 326.949219 79.347656 326.464844 78.175781 C 325.980469 77.007812 325.4375 75.863281 324.839844 74.746094 C 324.246094 73.632812 323.59375 72.546875 322.890625 71.492188 C 322.1875 70.441406 321.433594 69.425781 320.632812 68.445312 C 319.828125 67.46875 318.976562 66.53125 318.082031 65.636719 C 317.1875 64.738281 316.25 63.890625 315.273438 63.085938 C 314.292969 62.285156 313.277344 61.53125 312.226562 60.828125 C 311.171875 60.125 310.085938 59.472656 308.972656 58.878906 C 307.855469 58.28125 306.710938 57.738281 305.542969 57.253906 C 304.371094 56.769531 303.179688 56.34375 301.96875 55.976562 C 300.757812 55.609375 299.53125 55.300781 298.289062 55.054688 C 297.046875 54.808594 295.796875 54.621094 294.535156 54.5 C 293.277344 54.375 292.011719 54.3125 290.746094 54.3125 L 226.316406 54.3125 L 226.316406 80.085938 L 290.746094 80.085938 C 291.59375 80.085938 292.429688 80.167969 293.261719 80.332031 C 294.089844 80.496094 294.898438 80.742188 295.679688 81.066406 C 296.460938 81.390625 297.203125 81.785156 297.90625 82.257812 C 298.609375 82.726562 299.261719 83.261719 299.859375 83.859375 C 300.457031 84.457031 300.992188 85.109375 301.460938 85.8125 C 301.933594 86.515625 302.328125 87.257812 302.652344 88.039062 C 302.976562 88.820312 303.21875 89.628906 303.386719 90.457031 C 303.550781 91.289062 303.632812 92.125 303.632812 92.972656 L 303.632812 157.402344 L 329.40625 157.402344 Z M 148.996094 312.039062 L 84.566406 312.039062 C 83.71875 312.039062 82.882812 311.957031 82.050781 311.792969 C 81.222656 311.625 80.414062 311.382812 79.632812 311.058594 C 78.851562 310.734375 78.109375 310.335938 77.40625 309.867188 C 76.703125 309.398438 76.050781 308.863281 75.453125 308.265625 C 74.855469 307.667969 74.320312 307.015625 73.851562 306.3125 C 73.378906 305.609375 72.984375 304.867188 72.660156 304.085938 C 72.335938 303.304688 72.089844 302.496094 71.925781 301.667969 C 71.761719 300.835938 71.679688 300 71.679688 299.152344 L 71.679688 234.722656 L 45.90625 234.722656 L 45.90625 299.152344 C 45.90625 300.417969 45.96875 301.683594 46.09375 302.941406 C 46.214844 304.203125 46.402344 305.453125 46.648438 306.695312 C 46.894531 307.9375 47.203125 309.164062 47.570312 310.375 C 47.9375 311.585938 48.363281 312.777344 48.847656 313.949219 C 49.332031 315.117188 49.875 316.261719 50.472656 317.375 C 51.066406 318.492188 51.71875 319.578125 52.421875 320.632812 C 53.125 321.683594 53.878906 322.699219 54.679688 323.679688 C 55.484375 324.65625 56.332031 325.59375 57.230469 326.488281 C 58.125 327.382812 59.0625 328.234375 60.039062 329.035156 C 61.019531 329.839844 62.035156 330.59375 63.085938 331.296875 C 64.140625 332 65.226562 332.652344 66.339844 333.246094 C 67.457031 333.84375 68.601562 334.386719 69.769531 334.871094 C 70.941406 335.355469 72.132812 335.78125 73.34375 336.148438 C 74.554688 336.515625 75.78125 336.824219 77.023438 337.070312 C 78.265625 337.316406 79.515625 337.5 80.777344 337.625 C 82.035156 337.75 83.300781 337.8125 84.566406 337.8125 L 148.996094 337.8125 Z M 329.40625 299.152344 L 329.40625 234.722656 L 303.632812 234.722656 L 303.632812 299.152344 C 303.632812 300 303.550781 300.835938 303.386719 301.667969 C 303.21875 302.496094 302.976562 303.304688 302.652344 304.085938 C 302.328125 304.867188 301.933594 305.609375 301.460938 306.3125 C 300.992188 307.015625 300.457031 307.667969 299.859375 308.265625 C 299.261719 308.863281 298.609375 309.398438 297.90625 309.867188 C 297.203125 310.335938 296.460938 310.734375 295.679688 311.058594 C 294.898438 311.382812 294.089844 311.625 293.261719 311.792969 C 292.429688 311.957031 291.59375 312.039062 290.746094 312.039062 L 226.316406 312.039062 L 226.316406 337.8125 L 290.746094 337.8125 C 292.011719 337.8125 293.277344 337.75 294.535156 337.625 C 295.796875 337.5 297.046875 337.316406 298.289062 337.070312 C 299.53125 336.824219 300.757812 336.515625 301.96875 336.148438 C 303.179688 335.78125 304.371094 335.355469 305.542969 334.871094 C 306.710938 334.386719 307.855469 333.84375 308.972656 333.246094 C 310.085938 332.652344 311.171875 332 312.226562 331.296875 C 313.277344 330.59375 314.292969 329.839844 315.273438 329.035156 C 316.25 328.234375 317.1875 327.382812 318.082031 326.488281 C 318.976562 325.59375 319.828125 324.65625 320.632812 323.679688 C 321.433594 322.699219 322.1875 321.683594 322.890625 320.632812 C 323.59375 319.578125 324.246094 318.492188 324.839844 317.375 C 325.4375 316.261719 325.980469 315.117188 326.464844 313.949219 C 326.949219 312.777344 327.375 311.585938 327.742188 310.375 C 328.109375 309.164062 328.417969 307.9375 328.664062 306.695312 C 328.910156 305.453125 329.097656 304.203125 329.21875 302.941406 C 329.34375 301.683594 329.40625 300.417969 329.40625 299.152344 Z M 239.203125 157.402344 C 239.203125 155.714844 239.117188 154.03125 238.953125 152.351562 C 238.789062 150.671875 238.539062 149.003906 238.210938 147.347656 C 237.882812 145.691406 237.472656 144.054688 236.980469 142.441406 C 236.492188 140.824219 235.925781 139.238281 235.277344 137.675781 C 234.632812 136.117188 233.910156 134.59375 233.113281 133.105469 C 232.320312 131.617188 231.453125 130.167969 230.515625 128.765625 C 229.578125 127.363281 228.570312 126.007812 227.5 124.703125 C 226.429688 123.398438 225.296875 122.148438 224.105469 120.953125 C 222.910156 119.761719 221.660156 118.628906 220.355469 117.558594 C 219.050781 116.488281 217.695312 115.484375 216.292969 114.542969 C 214.890625 113.605469 213.441406 112.738281 211.953125 111.945312 C 210.464844 111.148438 208.941406 110.425781 207.382812 109.78125 C 205.820312 109.136719 204.234375 108.566406 202.617188 108.078125 C 201.003906 107.585938 199.367188 107.175781 197.710938 106.847656 C 196.054688 106.519531 194.386719 106.269531 192.707031 106.105469 C 191.027344 105.941406 189.34375 105.859375 187.65625 105.859375 C 185.96875 105.859375 184.285156 105.941406 182.605469 106.105469 C 180.921875 106.269531 179.253906 106.519531 177.601562 106.847656 C 175.945312 107.175781 174.308594 107.585938 172.691406 108.078125 C 171.078125 108.566406 169.488281 109.136719 167.929688 109.78125 C 166.371094 110.425781 164.847656 111.148438 163.359375 111.945312 C 161.867188 112.738281 160.421875 113.605469 159.019531 114.542969 C 157.617188 115.484375 156.261719 116.488281 154.957031 117.558594 C 153.652344 118.628906 152.402344 119.761719 151.207031 120.953125 C 150.015625 122.148438 148.882812 123.398438 147.8125 124.703125 C 146.738281 126.007812 145.734375 127.363281 144.796875 128.765625 C 143.859375 130.167969 142.992188 131.617188 142.195312 133.105469 C 141.402344 134.59375 140.679688 136.117188 140.035156 137.675781 C 139.386719 139.238281 138.820312 140.824219 138.332031 142.441406 C 137.839844 144.054688 137.429688 145.691406 137.101562 147.347656 C 136.773438 149.003906 136.523438 150.671875 136.359375 152.351562 C 136.195312 154.03125 136.109375 155.714844 136.109375 157.402344 C 136.109375 159.089844 136.195312 160.777344 136.359375 162.457031 C 136.523438 164.136719 136.773438 165.804688 137.101562 167.460938 C 137.429688 169.113281 137.839844 170.75 138.332031 172.367188 C 138.820312 173.980469 139.386719 175.570312 140.035156 177.128906 C 140.679688 178.6875 141.402344 180.210938 142.195312 181.703125 C 142.992188 183.191406 143.859375 184.636719 144.796875 186.039062 C 145.734375 187.445312 146.738281 188.796875 147.8125 190.101562 C 148.882812 191.40625 150.015625 192.65625 151.207031 193.851562 C 152.402344 195.046875 153.652344 196.175781 154.957031 197.25 C 156.261719 198.320312 157.617188 199.324219 159.019531 200.261719 C 160.421875 201.199219 161.867188 202.066406 163.359375 202.863281 C 164.847656 203.65625 166.371094 204.378906 167.929688 205.023438 C 169.488281 205.671875 171.078125 206.238281 172.691406 206.730469 C 174.308594 207.21875 175.945312 207.628906 177.601562 207.957031 C 179.253906 208.289062 180.921875 208.535156 182.605469 208.699219 C 184.285156 208.867188 185.96875 208.949219 187.65625 208.949219 C 189.34375 208.949219 191.027344 208.867188 192.707031 208.699219 C 194.386719 208.535156 196.054688 208.289062 197.710938 207.957031 C 199.367188 207.628906 201.003906 207.21875 202.617188 206.730469 C 204.234375 206.238281 205.820312 205.671875 207.382812 205.023438 C 208.941406 204.378906 210.464844 203.65625 211.953125 202.863281 C 213.441406 202.066406 214.890625 201.199219 216.292969 200.261719 C 217.695312 199.324219 219.050781 198.320312 220.355469 197.25 C 221.660156 196.175781 222.910156 195.046875 224.105469 193.851562 C 225.296875 192.65625 226.429688 191.40625 227.5 190.101562 C 228.570312 188.796875 229.578125 187.445312 230.515625 186.039062 C 231.453125 184.636719 232.320312 183.191406 233.113281 181.703125 C 233.910156 180.210938 234.632812 178.6875 235.277344 177.128906 C 235.925781 175.570312 236.492188 173.980469 236.980469 172.367188 C 237.472656 170.75 237.882812 169.113281 238.210938 167.460938 C 238.539062 165.804688 238.789062 164.136719 238.953125 162.457031 C 239.117188 160.777344 239.203125 159.089844 239.203125 157.402344 Z M 213.429688 157.402344 C 213.429688 158.246094 213.386719 159.089844 213.304688 159.929688 C 213.222656 160.769531 213.097656 161.601562 212.933594 162.429688 C 212.769531 163.257812 212.5625 164.078125 212.320312 164.882812 C 212.074219 165.691406 211.789062 166.484375 211.46875 167.265625 C 211.144531 168.046875 210.785156 168.808594 210.386719 169.550781 C 209.988281 170.296875 209.554688 171.019531 209.085938 171.722656 C 208.617188 172.421875 208.113281 173.101562 207.578125 173.753906 C 207.042969 174.40625 206.476562 175.03125 205.878906 175.628906 C 205.285156 176.222656 204.660156 176.789062 204.007812 177.324219 C 203.355469 177.859375 202.675781 178.363281 201.976562 178.832031 C 201.273438 179.300781 200.550781 179.734375 199.804688 180.132812 C 199.0625 180.53125 198.296875 180.890625 197.519531 181.214844 C 196.738281 181.535156 195.945312 181.820312 195.136719 182.066406 C 194.328125 182.3125 193.511719 182.515625 192.683594 182.679688 C 191.855469 182.84375 191.023438 182.96875 190.183594 183.050781 C 189.34375 183.132812 188.5 183.175781 187.65625 183.175781 C 186.8125 183.175781 185.96875 183.132812 185.128906 183.050781 C 184.289062 182.96875 183.457031 182.84375 182.628906 182.679688 C 181.800781 182.515625 180.980469 182.3125 180.175781 182.066406 C 179.367188 181.820312 178.574219 181.535156 177.792969 181.214844 C 177.011719 180.890625 176.25 180.53125 175.507812 180.132812 C 174.761719 179.734375 174.039062 179.300781 173.335938 178.832031 C 172.636719 178.363281 171.957031 177.859375 171.304688 177.324219 C 170.652344 176.789062 170.027344 176.222656 169.433594 175.628906 C 168.835938 175.03125 168.269531 174.40625 167.734375 173.753906 C 167.199219 173.101562 166.695312 172.421875 166.226562 171.722656 C 165.757812 171.019531 165.324219 170.296875 164.925781 169.550781 C 164.527344 168.808594 164.167969 168.046875 163.84375 167.265625 C 163.523438 166.484375 163.238281 165.691406 162.992188 164.882812 C 162.75 164.078125 162.542969 163.257812 162.378906 162.429688 C 162.214844 161.601562 162.089844 160.769531 162.007812 159.929688 C 161.925781 159.089844 161.882812 158.246094 161.882812 157.402344 C 161.882812 156.558594 161.925781 155.71875 162.007812 154.875 C 162.089844 154.035156 162.214844 153.203125 162.378906 152.375 C 162.542969 151.546875 162.75 150.730469 162.992188 149.921875 C 163.238281 149.113281 163.523438 148.320312 163.84375 147.539062 C 164.167969 146.761719 164.527344 146 164.925781 145.253906 C 165.324219 144.507812 165.757812 143.785156 166.226562 143.085938 C 166.695312 142.382812 167.199219 141.707031 167.734375 141.054688 C 168.269531 140.402344 168.835938 139.777344 169.433594 139.179688 C 170.027344 138.582031 170.652344 138.015625 171.304688 137.480469 C 171.957031 136.945312 172.636719 136.441406 173.335938 135.972656 C 174.039062 135.503906 174.761719 135.070312 175.507812 134.671875 C 176.25 134.277344 177.011719 133.914062 177.792969 133.59375 C 178.574219 133.269531 179.367188 132.984375 180.175781 132.738281 C 180.980469 132.496094 181.800781 132.289062 182.628906 132.125 C 183.457031 131.960938 184.289062 131.835938 185.128906 131.753906 C 185.96875 131.671875 186.8125 131.628906 187.65625 131.628906 C 188.5 131.628906 189.34375 131.671875 190.183594 131.753906 C 191.023438 131.835938 191.855469 131.960938 192.683594 132.125 C 193.511719 132.289062 194.328125 132.496094 195.136719 132.738281 C 195.945312 132.984375 196.738281 133.269531 197.519531 133.59375 C 198.296875 133.914062 199.0625 134.277344 199.804688 134.671875 C 200.550781 135.070312 201.273438 135.503906 201.976562 135.972656 C 202.675781 136.441406 203.355469 136.945312 204.007812 137.480469 C 204.660156 138.015625 205.285156 138.582031 205.878906 139.179688 C 206.476562 139.777344 207.042969 140.402344 207.578125 141.054688 C 208.113281 141.707031 208.617188 142.382812 209.085938 143.085938 C 209.554688 143.785156 209.988281 144.507812 210.386719 145.253906 C 210.785156 146 211.144531 146.761719 211.46875 147.539062 C 211.789062 148.320312 212.074219 149.113281 212.320312 149.921875 C 212.5625 150.730469 212.769531 151.546875 212.933594 152.375 C 213.097656 153.203125 213.222656 154.035156 213.304688 154.875 C 213.386719 155.71875 213.429688 156.558594 213.429688 157.402344 Z M 187.65625 221.835938 C 186.601562 221.835938 185.546875 221.859375 184.496094 221.914062 C 183.441406 221.964844 182.390625 222.042969 181.339844 222.144531 C 180.292969 222.25 179.246094 222.378906 178.203125 222.53125 C 177.160156 222.6875 176.121094 222.867188 175.085938 223.074219 C 174.050781 223.277344 173.023438 223.507812 172 223.765625 C 170.976562 224.023438 169.960938 224.304688 168.953125 224.609375 C 167.945312 224.914062 166.941406 225.246094 165.949219 225.601562 C 164.957031 225.957031 163.972656 226.335938 163 226.738281 C 162.023438 227.144531 161.0625 227.570312 160.109375 228.019531 C 159.15625 228.472656 158.214844 228.945312 157.28125 229.441406 C 156.351562 229.941406 155.4375 230.460938 154.53125 231 C 153.628906 231.542969 152.738281 232.109375 151.859375 232.695312 C 150.984375 233.28125 150.121094 233.886719 149.273438 234.515625 C 148.425781 235.144531 147.597656 235.792969 146.78125 236.460938 C 145.964844 237.128906 145.167969 237.816406 144.386719 238.527344 C 143.605469 239.234375 142.839844 239.960938 142.097656 240.707031 C 141.351562 241.453125 140.625 242.214844 139.914062 242.996094 C 139.207031 243.777344 138.519531 244.578125 137.851562 245.390625 C 137.179688 246.207031 136.53125 247.039062 135.902344 247.882812 C 135.277344 248.730469 134.667969 249.59375 134.082031 250.46875 C 133.496094 251.347656 132.933594 252.238281 132.390625 253.140625 C 131.847656 254.046875 131.328125 254.964844 130.832031 255.894531 C 130.335938 256.824219 129.859375 257.765625 129.410156 258.71875 C 128.960938 259.671875 128.53125 260.636719 128.128906 261.609375 C 127.726562 262.582031 127.347656 263.566406 126.992188 264.558594 C 126.636719 265.554688 126.304688 266.554688 126 267.5625 C 125.691406 268.570312 125.410156 269.589844 125.15625 270.609375 C 124.898438 271.632812 124.667969 272.664062 124.460938 273.695312 C 124.257812 274.730469 124.078125 275.769531 123.921875 276.8125 C 123.765625 277.855469 123.636719 278.902344 123.535156 279.953125 C 123.429688 281 123.355469 282.050781 123.300781 283.105469 C 123.25 284.160156 123.222656 285.210938 123.222656 286.265625 L 148.996094 286.265625 C 148.996094 285 149.058594 283.738281 149.183594 282.476562 C 149.308594 281.21875 149.492188 279.964844 149.738281 278.726562 C 149.988281 277.484375 150.292969 276.257812 150.660156 275.042969 C 151.027344 273.832031 151.457031 272.640625 151.941406 271.472656 C 152.425781 270.304688 152.964844 269.160156 153.5625 268.042969 C 154.160156 266.925781 154.808594 265.839844 155.511719 264.789062 C 156.214844 263.734375 156.96875 262.71875 157.773438 261.742188 C 158.574219 260.761719 159.425781 259.824219 160.320312 258.929688 C 161.214844 258.035156 162.152344 257.1875 163.132812 256.382812 C 164.109375 255.578125 165.125 254.828125 166.179688 254.121094 C 167.230469 253.417969 168.316406 252.769531 169.433594 252.171875 C 170.550781 251.574219 171.691406 251.035156 172.863281 250.550781 C 174.03125 250.066406 175.222656 249.640625 176.433594 249.273438 C 177.644531 248.90625 178.871094 248.597656 180.113281 248.351562 C 181.355469 248.101562 182.605469 247.917969 183.867188 247.792969 C 185.125 247.667969 186.390625 247.609375 187.65625 247.609375 C 188.921875 247.609375 190.183594 247.667969 191.445312 247.792969 C 192.707031 247.917969 193.957031 248.101562 195.199219 248.351562 C 196.441406 248.597656 197.667969 248.90625 198.878906 249.273438 C 200.089844 249.640625 201.28125 250.066406 202.449219 250.550781 C 203.621094 251.035156 204.761719 251.574219 205.878906 252.171875 C 206.996094 252.769531 208.082031 253.417969 209.132812 254.121094 C 210.1875 254.828125 211.203125 255.578125 212.179688 256.382812 C 213.160156 257.1875 214.097656 258.035156 214.992188 258.929688 C 215.886719 259.824219 216.738281 260.761719 217.539062 261.742188 C 218.34375 262.71875 219.097656 263.734375 219.800781 264.789062 C 220.503906 265.839844 221.152344 266.925781 221.75 268.042969 C 222.347656 269.160156 222.886719 270.304688 223.371094 271.472656 C 223.855469 272.640625 224.28125 273.832031 224.652344 275.042969 C 225.019531 276.257812 225.324219 277.484375 225.574219 278.726562 C 225.820312 279.964844 226.003906 281.21875 226.128906 282.476562 C 226.253906 283.738281 226.316406 285 226.316406 286.265625 L 252.089844 286.265625 C 252.089844 285.210938 252.0625 284.160156 252.011719 283.105469 C 251.957031 282.050781 251.882812 281 251.777344 279.953125 C 251.675781 278.902344 251.546875 277.855469 251.390625 276.8125 C 251.234375 275.769531 251.054688 274.730469 250.851562 273.695312 C 250.644531 272.664062 250.414062 271.632812 250.15625 270.609375 C 249.902344 269.589844 249.621094 268.570312 249.3125 267.5625 C 249.007812 266.554688 248.675781 265.554688 248.320312 264.558594 C 247.964844 263.566406 247.585938 262.582031 247.183594 261.609375 C 246.78125 260.636719 246.351562 259.671875 245.902344 258.71875 C 245.449219 257.765625 244.976562 256.824219 244.480469 255.894531 C 243.984375 254.964844 243.464844 254.046875 242.921875 253.140625 C 242.378906 252.238281 241.816406 251.347656 241.230469 250.46875 C 240.644531 249.59375 240.035156 248.730469 239.410156 247.882812 C 238.78125 247.039062 238.132812 246.207031 237.460938 245.390625 C 236.792969 244.578125 236.105469 243.777344 235.398438 242.996094 C 234.6875 242.214844 233.960938 241.453125 233.214844 240.707031 C 232.46875 239.960938 231.707031 239.234375 230.925781 238.527344 C 230.144531 237.816406 229.347656 237.128906 228.53125 236.460938 C 227.714844 235.792969 226.886719 235.144531 226.039062 234.515625 C 225.191406 233.886719 224.328125 233.28125 223.453125 232.695312 C 222.574219 232.109375 221.683594 231.542969 220.78125 231 C 219.875 230.460938 218.960938 229.941406 218.027344 229.441406 C 217.097656 228.945312 216.15625 228.472656 215.203125 228.019531 C 214.25 227.570312 213.289062 227.144531 212.3125 226.738281 C 211.339844 226.335938 210.355469 225.957031 209.363281 225.601562 C 208.371094 225.246094 207.367188 224.914062 206.359375 224.609375 C 205.351562 224.304688 204.335938 224.023438 203.3125 223.765625 C 202.289062 223.507812 201.261719 223.277344 200.226562 223.074219 C 199.191406 222.867188 198.152344 222.6875 197.109375 222.53125 C 196.066406 222.378906 195.019531 222.25 193.972656 222.144531 C 192.921875 222.042969 191.871094 221.964844 190.816406 221.914062 C 189.765625 221.859375 188.710938 221.835938 187.65625 221.835938 Z M 187.65625 221.835938 " fill-opacity="1" fill-rule="nonzero"/></g></svg>