<svg xmlns="http://www.w3.org/2000/svg" xmlns:xlink="http://www.w3.org/1999/xlink" width="500" zoomAndPan="magnify" viewBox="0 0 375 374.999991" height="500" preserveAspectRatio="xMidYMid meet" version="1.0"><defs><clipPath id="1da835cf16"><path d="M 134.902344 37.5 L 240.082031 37.5 L 240.082031 231 L 134.902344 231 Z M 134.902344 37.5 " clip-rule="nonzero"/></clipPath><clipPath id="a58da4e149"><path d="M 134.902344 244 L 240.082031 244 L 240.082031 302 L 134.902344 302 Z M 134.902344 244 " clip-rule="nonzero"/></clipPath><clipPath id="32ba8b102d"><path d="M 134.902344 294 L 240.082031 294 L 240.082031 350.25 L 134.902344 350.25 Z M 134.902344 294 " clip-rule="nonzero"/></clipPath></defs><path fill="#040606" d="M 198.019531 81.425781 C 198.019531 87.253906 193.308594 91.976562 187.492188 91.976562 C 181.699219 91.976562 176.992188 87.253906 176.992188 81.425781 C 176.992188 75.59375 181.699219 70.902344 187.492188 70.902344 C 193.308594 70.902344 198.019531 75.59375 198.019531 81.425781 " fill-opacity="1" fill-rule="nonzero"/><g clip-path="url(#1da835cf16)"><path fill="#040606" d="M 233.097656 178.046875 C 233.097656 203.257812 212.648438 223.75 187.492188 223.75 C 162.359375 223.75 141.914062 203.257812 141.914062 178.046875 L 141.914062 90.226562 C 141.914062 65.015625 162.359375 44.523438 187.492188 44.523438 C 212.648438 44.523438 233.097656 65.015625 233.097656 90.226562 Z M 187.492188 37.5 C 158.453125 37.5 134.902344 61.101562 134.902344 90.226562 L 134.902344 178.046875 C 134.902344 207.175781 158.453125 230.773438 187.492188 230.773438 C 216.558594 230.773438 240.109375 207.175781 240.109375 178.046875 L 240.109375 90.226562 C 240.109375 61.101562 216.558594 37.5 187.492188 37.5 " fill-opacity="1" fill-rule="nonzero"/></g><g clip-path="url(#a58da4e149)"><path fill="#040606" d="M 234.125 245.851562 L 187.492188 292.582031 L 140.886719 245.851562 C 139.53125 244.492188 137.3125 244.492188 135.929688 245.851562 C 134.570312 247.238281 134.570312 249.460938 135.929688 250.820312 L 185.027344 300.023438 C 185.71875 300.714844 186.605469 301.050781 187.492188 301.050781 C 188.40625 301.050781 189.292969 300.714844 189.984375 300.023438 L 239.082031 250.820312 C 240.441406 249.460938 240.441406 247.238281 239.082031 245.851562 C 237.699219 244.492188 235.480469 244.492188 234.125 245.851562 " fill-opacity="1" fill-rule="nonzero"/></g><g clip-path="url(#32ba8b102d)"><path fill="#040606" d="M 234.125 295.050781 L 187.492188 341.753906 L 140.886719 295.050781 C 139.53125 293.691406 137.3125 293.691406 135.929688 295.050781 C 134.570312 296.414062 134.570312 298.632812 135.929688 300.023438 L 185.027344 349.222656 C 185.71875 349.917969 186.605469 350.25 187.492188 350.25 C 188.40625 350.25 189.292969 349.917969 189.984375 349.222656 L 239.082031 300.023438 C 240.441406 298.632812 240.441406 296.414062 239.082031 295.050781 C 237.699219 293.691406 235.480469 293.691406 234.125 295.050781 " fill-opacity="1" fill-rule="nonzero"/></g></svg>