<svg xmlns="http://www.w3.org/2000/svg" xmlns:xlink="http://www.w3.org/1999/xlink" width="500" zoomAndPan="magnify" viewBox="0 0 375 374.999991" height="500" preserveAspectRatio="xMidYMid meet" version="1.0"><defs><clipPath id="e81e17ed6e"><path d="M 135 41.035156 L 189 41.035156 L 189 99 L 135 99 Z M 135 41.035156 " clip-rule="nonzero"/></clipPath><clipPath id="1975588af0"><path d="M 182 276.257812 L 234.695312 276.257812 L 234.695312 334.246094 L 182 334.246094 Z M 182 276.257812 " clip-rule="nonzero"/></clipPath><clipPath id="3929125d89"><path d="M 273.53125 138.234375 L 331.5 138.234375 L 331.5 191.691406 L 273.53125 191.691406 Z M 273.53125 138.234375 " clip-rule="nonzero"/></clipPath><clipPath id="326b795a8b"><path d="M 135 41.035156 L 164 41.035156 L 164 98 L 135 98 Z M 135 41.035156 " clip-rule="nonzero"/></clipPath><clipPath id="cbe8873c4f"><path d="M 209.453125 276.257812 L 234.695312 276.257812 L 234.695312 334.246094 L 209.453125 334.246094 Z M 209.453125 276.257812 " clip-rule="nonzero"/></clipPath><clipPath id="e8fd892427"><path d="M 274 138.234375 L 331.5 138.234375 L 331.5 167 L 274 167 Z M 274 138.234375 " clip-rule="nonzero"/></clipPath><clipPath id="80f5a69e3e"><path d="M 37.5 195 L 124 195 L 124 265 L 37.5 265 Z M 37.5 195 " clip-rule="nonzero"/></clipPath><clipPath id="3c9e50121a"><path d="M 78.378906 257 L 184.207031 257 L 184.207031 334.246094 L 78.378906 334.246094 Z M 78.378906 257 " clip-rule="nonzero"/></clipPath><clipPath id="f0cbee9cbc"><path d="M 37.5 81 L 93 81 L 93 158 L 37.5 158 Z M 37.5 81 " clip-rule="nonzero"/></clipPath></defs><path fill="#000000" d="M 187.328125 100.671875 C 138.832031 99.417969 99.644531 137.238281 98.019531 184.703125 C 96.351562 233.28125 134.964844 275.472656 186.734375 274.691406 C 232.097656 274.007812 270.355469 237.558594 271.886719 190.433594 C 273.230469 141.246094 234.824219 101.898438 187.328125 100.671875 " fill-opacity="1" fill-rule="nonzero"/><path fill="#ffffff" d="M 208.226562 150.027344 C 222.789062 160.71875 232.5 184.046875 215.996094 197.652344 C 211.140625 201.542969 199.488281 194.738281 204.34375 186.960938 C 211.140625 175.296875 206.285156 161.691406 197.546875 154.886719 C 185.894531 146.136719 169.390625 144.195312 158.710938 152.941406 C 137.351562 168.496094 124.730469 198.625 145.117188 220.980469 C 168.421875 245.28125 210.167969 254.03125 236.382812 231.671875 C 258.714844 213.207031 261.628906 185.019531 253.859375 157.800781 C 244.152344 118.921875 200.460938 118.921875 166.476562 122.8125 C 157.382812 123.570312 147.101562 119.585938 143.03125 111.328125 C 116.90625 125.671875 99.101562 153.042969 98.019531 184.703125 C 97.765625 192.160156 98.457031 199.460938 100.003906 206.484375 C 100.515625 190.476562 105.699219 174.902344 117.933594 160.71875 C 141.234375 133.503906 178.128906 127.671875 208.226562 150.027344 " fill-opacity="1" fill-rule="nonzero"/><path fill="#000000" d="M 187.328125 100.671875 C 171.179688 100.253906 156.070312 104.171875 143.03125 111.328125 C 147.101562 119.585938 157.382812 123.570312 166.476562 122.8125 C 200.460938 118.921875 231.347656 123.976562 244.894531 161.691406 C 254.460938 188.324219 258.714844 213.207031 236.382812 231.671875 C 210.167969 254.03125 168.421875 245.28125 145.117188 220.980469 C 124.730469 198.625 137.351562 168.496094 158.710938 152.941406 C 169.390625 144.195312 185.894531 146.136719 197.546875 154.886719 C 206.285156 161.691406 211.140625 175.296875 204.34375 186.960938 C 199.488281 194.738281 211.140625 201.542969 215.996094 197.652344 C 232.5 184.046875 222.789062 160.71875 208.226562 150.027344 C 178.128906 127.671875 141.234375 133.503906 117.933594 160.71875 C 105.699219 174.902344 100.515625 190.476562 100.003906 206.484375 C 108.519531 245.21875 142.910156 275.351562 186.734375 274.691406 C 232.097656 274.007812 270.355469 237.558594 271.886719 190.433594 C 273.230469 141.246094 234.824219 101.898438 187.328125 100.671875 " fill-opacity="1" fill-rule="nonzero"/><g clip-path="url(#e81e17ed6e)"><path fill="#000000" d="M 150.207031 41.03125 C 160.796875 48.257812 169.566406 57.199219 176.929688 67.550781 C 181.492188 73.976562 185.300781 80.816406 188.386719 88.59375 C 178.984375 87.472656 170.160156 87.808594 161.382812 89.617188 C 152.683594 91.410156 144.433594 94.363281 136.394531 98.863281 C 136.160156 97.882812 135.785156 97.113281 135.824219 96.367188 C 136.113281 90.667969 136.246094 84.941406 136.898438 79.28125 C 137.644531 72.851562 139.179688 66.554688 141.246094 60.398438 C 143.367188 54.078125 146.074219 48.027344 149.21875 42.160156 C 149.402344 41.816406 149.75 41.550781 150.207031 41.03125 " fill-opacity="1" fill-rule="nonzero"/></g><g clip-path="url(#1975588af0)"><path fill="#000000" d="M 182.011719 286.890625 C 191.132812 287.855469 199.972656 287.578125 208.769531 285.753906 C 217.507812 283.933594 225.78125 280.855469 233.964844 276.40625 C 234.699219 297.394531 230.199219 316.476562 220.125 334.246094 C 207.25 328.050781 183.890625 299.105469 182.011719 286.890625 " fill-opacity="1" fill-rule="nonzero"/></g><path fill="#000000" d="M 112.640625 255.613281 C 118.535156 262.808594 125.015625 268.890625 132.457031 273.875 C 139.816406 278.804688 147.832031 282.375 156.6875 284.949219 C 155.960938 285.953125 155.519531 286.757812 154.898438 287.386719 C 147.574219 294.753906 139.53125 301.210938 130.429688 306.25 C 123.148438 310.289062 115.582031 313.6875 107.496094 315.832031 C 107.175781 315.914062 106.847656 315.949219 106.25 316.054688 C 105.992188 315.273438 105.597656 314.527344 105.5 313.742188 C 104.675781 307.152344 104.050781 300.554688 104.25 293.890625 C 104.53125 284.328125 105.984375 274.96875 108.699219 265.8125 C 109.558594 262.910156 110.6875 260.089844 111.722656 257.242188 C 111.886719 256.785156 112.199219 256.382812 112.640625 255.613281 " fill-opacity="1" fill-rule="nonzero"/><path fill="#000000" d="M 257.585938 120.105469 C 251.621094 112.738281 245.140625 106.691406 237.757812 101.695312 C 230.328125 96.667969 222.203125 93.046875 213.246094 90.480469 C 213.871094 89.617188 214.238281 88.984375 214.726562 88.460938 C 221.007812 81.714844 228.109375 75.945312 236.019531 71.261719 C 240.777344 68.445312 245.722656 65.894531 250.753906 63.601562 C 254.328125 61.96875 258.167969 60.894531 261.933594 59.722656 C 263.816406 59.140625 264.15625 59.449219 264.339844 61.421875 C 264.882812 67.367188 265.757812 73.3125 265.753906 79.257812 C 265.746094 84.949219 264.933594 90.652344 264.230469 96.320312 C 263.277344 103.957031 260.875 111.230469 258.210938 118.414062 C 258.066406 118.804688 257.921875 119.195312 257.585938 120.105469 " fill-opacity="1" fill-rule="nonzero"/><path fill="#000000" d="M 38.574219 222.691406 C 46.265625 208.722656 72.941406 187.273438 85.828125 184.71875 C 85.027344 193.664062 85.128906 202.515625 86.957031 211.285156 C 88.773438 219.992188 91.722656 228.273438 96.234375 236.332031 C 95.332031 236.550781 94.671875 236.835938 94.007812 236.851562 C 82.945312 237.097656 72.078125 235.675781 61.460938 232.617188 C 53.859375 230.425781 46.550781 227.441406 39.664062 223.488281 C 39.316406 223.285156 39.007812 223.011719 38.574219 222.691406 " fill-opacity="1" fill-rule="nonzero"/><path fill="#000000" d="M 87.699219 159.6875 C 72.320312 145.457031 62.222656 128.78125 56.632812 108.996094 C 57.359375 108.6875 57.996094 108.234375 58.675781 108.152344 C 68.1875 106.972656 77.703125 106.371094 87.289062 107.460938 C 97.015625 108.570312 106.464844 110.714844 115.539062 114.429688 C 115.921875 114.589844 116.289062 114.796875 116.660156 114.992188 C 116.714844 115.023438 116.726562 115.132812 116.886719 115.476562 C 102.808594 126.957031 92.988281 141.460938 87.699219 159.6875 " fill-opacity="1" fill-rule="nonzero"/><g clip-path="url(#3929125d89)"><path fill="#000000" d="M 284.011719 191.0625 C 286.101562 172.40625 282.652344 155.304688 273.695312 138.945312 C 275.023438 138.773438 275.980469 138.546875 276.941406 138.539062 C 289.640625 138.425781 302.074219 140.214844 314.007812 144.578125 C 319.652344 146.648438 325.015625 149.507812 330.5 152.019531 C 330.789062 152.152344 331.023438 152.410156 331.5 152.773438 C 327.128906 159.566406 321.78125 165.453125 315.921875 170.828125 C 306.65625 179.328125 296.300781 186.183594 284.011719 191.0625 " fill-opacity="1" fill-rule="nonzero"/></g><path fill="#000000" d="M 313 266.300781 C 301.582031 271.285156 263.886719 267.375 252.949219 260 C 267.183594 248.421875 277.007812 233.929688 281.988281 216.273438 C 291.347656 220.117188 310.671875 251.316406 313 266.300781 " fill-opacity="1" fill-rule="nonzero"/><g clip-path="url(#326b795a8b)"><path fill="#ffffff" d="M 163.808594 52.191406 C 159.636719 48.128906 155.128906 44.386719 150.207031 41.03125 C 149.75 41.550781 149.402344 41.816406 149.21875 42.160156 C 146.074219 48.027344 143.367188 54.078125 141.246094 60.398438 C 139.179688 66.554688 137.644531 72.851562 136.898438 79.28125 C 136.246094 84.941406 136.113281 90.667969 135.824219 96.367188 C 135.800781 96.769531 135.902344 97.183594 136.035156 97.625 C 139.058594 79.660156 149.625 64.128906 163.808594 52.191406 " fill-opacity="1" fill-rule="nonzero"/></g><path fill="#000000" d="M 163.808594 52.191406 C 149.625 64.128906 139.058594 79.660156 136.035156 97.625 C 136.148438 98.007812 136.285156 98.414062 136.394531 98.863281 C 144.433594 94.363281 152.683594 91.410156 161.382812 89.617188 C 170.160156 87.808594 178.984375 87.472656 188.386719 88.59375 C 185.300781 80.816406 181.492188 73.976562 176.929688 67.550781 C 172.988281 62.003906 168.621094 56.882812 163.808594 52.191406 " fill-opacity="1" fill-rule="nonzero"/><path fill="#000000" d="M 208.769531 285.753906 C 199.972656 287.578125 191.132812 287.855469 182.011719 286.890625 C 183.457031 296.296875 197.628906 315.601562 209.957031 326.828125 C 219.886719 311.125 228.023438 294.496094 233.238281 276.789062 C 225.289062 281.023438 217.25 283.992188 208.769531 285.753906 " fill-opacity="1" fill-rule="nonzero"/><g clip-path="url(#cbe8873c4f)"><path fill="#ffffff" d="M 233.238281 276.789062 C 228.023438 294.496094 219.886719 311.125 209.957031 326.828125 C 213.640625 330.179688 217.164062 332.816406 220.125 334.246094 C 230.199219 316.476562 234.699219 297.394531 233.964844 276.40625 C 233.722656 276.539062 233.480469 276.660156 233.238281 276.789062 " fill-opacity="1" fill-rule="nonzero"/></g><path fill="#000000" d="M 132.457031 273.875 C 125.015625 268.890625 118.535156 262.808594 112.640625 255.613281 C 112.199219 256.382812 111.886719 256.785156 111.722656 257.242188 C 110.6875 260.089844 109.558594 262.910156 108.699219 265.8125 C 105.984375 274.96875 104.53125 284.328125 104.25 293.890625 C 104.152344 297.214844 104.257812 300.523438 104.488281 303.816406 C 121.980469 300.015625 138.863281 294.066406 154.511719 284.277344 C 146.523438 281.765625 139.207031 278.398438 132.457031 273.875 " fill-opacity="1" fill-rule="nonzero"/><path fill="#ffffff" d="M 104.488281 303.816406 C 104.722656 307.132812 105.082031 310.4375 105.5 313.742188 C 105.597656 314.527344 105.992188 315.273438 106.25 316.054688 C 106.847656 315.949219 107.175781 315.914062 107.496094 315.832031 C 115.582031 313.6875 123.148438 310.289062 130.429688 306.25 C 139.53125 301.210938 147.574219 294.753906 154.898438 287.386719 C 155.519531 286.757812 155.960938 285.953125 156.6875 284.949219 C 155.953125 284.738281 155.234375 284.507812 154.511719 284.277344 C 138.863281 294.066406 121.980469 300.015625 104.488281 303.816406 " fill-opacity="1" fill-rule="nonzero"/><path fill="#000000" d="M 216.570312 86.542969 C 215.953125 87.175781 215.332031 87.808594 214.722656 88.460938 C 214.238281 88.984375 213.871094 89.617188 213.25 90.480469 C 222.203125 93.046875 230.328125 96.667969 237.757812 101.695312 C 245.140625 106.691406 251.621094 112.738281 257.585938 120.105469 C 257.921875 119.195312 258.066406 118.804688 258.210938 118.414062 C 260.875 111.230469 263.277344 103.957031 264.230469 96.320312 C 264.933594 90.652344 265.746094 84.949219 265.753906 79.257812 C 265.757812 75.085938 265.324219 70.910156 264.882812 66.738281 C 249.992188 70.167969 235.511719 75.707031 221.820312 83.929688 C 220.332031 85.046875 218.421875 85.738281 216.570312 86.542969 " fill-opacity="1" fill-rule="nonzero"/><path fill="#ffffff" d="M 261.933594 59.722656 C 258.167969 60.894531 254.328125 61.96875 250.753906 63.601562 C 245.722656 65.894531 240.777344 68.445312 236.019531 71.261719 C 228.871094 75.496094 222.390625 80.621094 216.570312 86.542969 C 218.421875 85.738281 220.332031 85.046875 221.820312 83.929688 C 235.511719 75.707031 249.992188 70.167969 264.882812 66.738281 C 264.691406 64.964844 264.496094 63.191406 264.339844 61.421875 C 264.15625 59.449219 263.816406 59.140625 261.933594 59.722656 " fill-opacity="1" fill-rule="nonzero"/><path fill="#ffffff" d="M 49.015625 209.542969 C 44.496094 214.125 40.765625 218.710938 38.574219 222.691406 C 39.007812 223.011719 39.316406 223.285156 39.664062 223.488281 C 46.550781 227.441406 53.859375 230.425781 61.460938 232.617188 C 72.042969 235.664062 82.875 237.085938 93.898438 236.851562 C 76.589844 231.679688 60.355469 223.308594 49.015625 209.542969 " fill-opacity="1" fill-rule="nonzero"/><path fill="#000000" d="M 93.898438 236.851562 C 93.9375 236.851562 93.972656 236.851562 94.007812 236.851562 C 94.671875 236.835938 95.332031 236.550781 96.234375 236.332031 C 91.722656 228.273438 88.773438 219.992188 86.957031 211.285156 C 85.128906 202.515625 85.027344 193.664062 85.828125 184.71875 C 76.613281 186.546875 60.347656 198.039062 49.015625 209.542969 C 60.355469 223.308594 76.589844 231.679688 93.898438 236.851562 " fill-opacity="1" fill-rule="nonzero"/><path fill="#000000" d="M 116.886719 115.476562 C 116.726562 115.132812 116.714844 115.023438 116.660156 114.992188 C 116.289062 114.796875 115.921875 114.589844 115.539062 114.429688 C 106.464844 110.714844 97.015625 108.570312 87.289062 107.460938 C 82.832031 106.953125 78.386719 106.824219 73.953125 106.941406 C 73.976562 124.933594 79.371094 142.703125 88.015625 158.660156 C 93.375 140.921875 103.074219 126.742188 116.886719 115.476562 " fill-opacity="1" fill-rule="nonzero"/><path fill="#ffffff" d="M 58.675781 108.152344 C 57.996094 108.234375 57.359375 108.6875 56.632812 108.996094 C 62.222656 128.78125 72.320312 145.457031 87.699219 159.6875 C 87.800781 159.339844 87.914062 159.007812 88.015625 158.660156 C 79.371094 142.703125 73.976562 124.933594 73.953125 106.941406 C 68.851562 107.070312 63.757812 107.519531 58.675781 108.152344 " fill-opacity="1" fill-rule="nonzero"/><path fill="#000000" d="M 273.695312 138.945312 C 282.652344 155.304688 286.101562 172.40625 284.011719 191.0625 C 296.300781 186.183594 306.65625 179.328125 315.921875 170.828125 C 317.417969 169.453125 318.882812 168.046875 320.304688 166.601562 C 307.085938 154.199219 291.894531 144.289062 274.042969 138.894531 C 273.925781 138.910156 273.820312 138.929688 273.695312 138.945312 " fill-opacity="1" fill-rule="nonzero"/><g clip-path="url(#e8fd892427)"><path fill="#ffffff" d="M 330.5 152.019531 C 325.015625 149.507812 319.652344 146.648438 314.007812 144.578125 C 302.074219 140.214844 289.640625 138.425781 276.941406 138.539062 C 276.074219 138.546875 275.1875 138.730469 274.042969 138.894531 C 291.894531 144.289062 307.085938 154.199219 320.304688 166.601562 C 324.453125 162.386719 328.246094 157.832031 331.5 152.773438 C 331.023438 152.410156 330.789062 152.152344 330.5 152.019531 " fill-opacity="1" fill-rule="nonzero"/></g><path fill="#000000" d="M 282.800781 216.667969 C 282.523438 216.515625 282.25 216.378906 281.988281 216.273438 C 277.007812 233.929688 267.183594 248.421875 252.949219 260 C 261.097656 265.496094 284.085938 269.0625 300.011719 268.464844 C 299.253906 260.070312 298.023438 251.667969 295.609375 243.335938 C 292.480469 233.941406 288.71875 224.542969 282.800781 216.667969 " fill-opacity="1" fill-rule="nonzero"/><path fill="#ffffff" d="M 282.800781 216.667969 C 288.71875 224.542969 292.480469 233.941406 295.609375 243.335938 C 298.023438 251.667969 299.253906 260.070312 300.011719 268.464844 C 305.460938 268.261719 310.089844 267.570312 313 266.300781 C 310.738281 251.734375 292.417969 221.859375 282.800781 216.667969 " fill-opacity="1" fill-rule="nonzero"/><path stroke-linecap="round" transform="matrix(0.0970904, 0, 0, -0.0971992, 37.602171, 334.24536)" fill="none" stroke-linejoin="miter" d="M 636.883814 1343.359675 C 636.883814 1343.359675 752.59423 775.783304 1283.429844 643.484117 " stroke="#293982" stroke-width="20" stroke-opacity="1" stroke-miterlimit="10"/><path stroke-linecap="round" transform="matrix(0.0970904, 0, 0, -0.0971992, 37.602171, 334.24536)" fill="none" stroke-linejoin="miter" d="M 1368.683798 625.037785 C 1368.683798 625.037785 1532.794642 603.255841 1591.69591 612.579477 " stroke="#293982" stroke-width="20" stroke-opacity="1" stroke-miterlimit="10"/><g clip-path="url(#80f5a69e3e)"><path stroke-linecap="round" transform="matrix(0.0970904, 0, 0, -0.0971992, 37.602171, 334.24536)" fill="none" stroke-linejoin="miter" d="M 10.011774 1147.683873 C 10.011774 1147.683873 256.439554 982.108949 603.892667 1007.347069 " stroke="#293982" stroke-width="20" stroke-opacity="1" stroke-miterlimit="10"/></g><g clip-path="url(#3c9e50121a)"><path stroke-linecap="round" transform="matrix(0.0970904, 0, 0, -0.0971992, 37.602171, 334.24536)" fill="none" stroke-linejoin="miter" d="M 707.050406 187.148375 C 707.050406 187.148375 1051.807925 305.060226 1226.540322 507.166122 " stroke="#293982" stroke-width="20" stroke-opacity="1" stroke-miterlimit="10"/></g><g clip-path="url(#f0cbee9cbc)"><path stroke-linecap="round" transform="matrix(0.0970904, 0, 0, -0.0971992, 37.602171, 334.24536)" fill="none" stroke-linejoin="miter" d="M 196.009428 2317.398371 C 196.009428 2317.398371 249.801092 2138.923071 282.430142 2098.453666 " stroke="#293982" stroke-width="20" stroke-opacity="1" stroke-miterlimit="10"/></g></svg>